<svg xmlns="http://www.w3.org/2000/svg" viewBox="0 0 500 500"><g id="freepik--Plant--inject-5"><g id="freepik--plant--inject-5"><g id="freepik--Pot--inject-5"><g id="freepik--pot--inject-5"><path d="M277.51,197.87c6.31-6.51,10-33,3.86-38.16h-31.3c-6.15,5.16-2.45,31.64,3.86,38.15l.17.18.22.22a7.31,7.31,0,0,0,.57.51l.15.12c.15.12.3.24.47.36a6.71,6.71,0,0,0,.82.53c5.19,3,13.6,3,18.79,0h0c.27-.16.55-.34.82-.53s.3-.23.44-.34l.19-.15c.19-.16.38-.32.55-.49s.16-.17.25-.25Z" style="fill:#ebebeb"></path><path d="M252.79,157.64c-7.14,4.16-7.14,10.93,0,15.09s18.72,4.17,25.86,0,7.15-10.92,0-15.09S259.93,153.47,252.79,157.64Z" style="fill:#f5f5f5"></path><path d="M256.23,159.64c-5.25,3.06-5.25,8,0,11.09s13.74,3.06,19,0,5.24-8,0-11.09S261.47,156.58,256.23,159.64Z" style="fill:#e0e0e0"></path><path d="M275.22,164.9c-5.25-3.06-13.75-3.06-19,0a8.72,8.72,0,0,0-3.15,2.92,8.79,8.79,0,0,0,3.15,2.91c5.24,3.06,13.74,3.06,19,0a8.75,8.75,0,0,0,3.14-2.91A8.68,8.68,0,0,0,275.22,164.9Z" style="fill:#fafafa"></path></g><g id="freepik--Plants--inject-5"><path d="M256.73,117.53l8.42,8.69-8.54-5.39a25.19,25.19,0,0,0,.45,8.82,56.16,56.16,0,0,1,6.41,5.95l-6.6-3.67a35,35,0,0,0-.1,11.79c.26,1.9,1.86,5.68,2.82,8.47a30.27,30.27,0,0,0,1.57,3.76,2.4,2.4,0,0,0,.11.23c1.71-.7,3.49-1.37,5.32-2,1.43-2.21,3.65-7.84,4.81-12.53,4.4-18-8-30.25-18.65-35.22A33.45,33.45,0,0,1,256.73,117.53Z" style="fill:#f0f0f0"></path><path d="M264.49,119.33a18.05,18.05,0,0,1,3,7.52,36.84,36.84,0,0,1,.63,8.12A34.51,34.51,0,0,1,264,150.55h0a.27.27,0,0,0,.11.36.26.26,0,0,0,.36-.1h0A34.8,34.8,0,0,0,268.37,135a37.69,37.69,0,0,0-.77-8.14A18,18,0,0,0,264.49,119.33Z" style="fill:#fff"></path><path d="M293.82,124.52h0A150.65,150.65,0,0,0,286,140.94l-9.78,3.4,7.66,0-2.87,7-9.55,3.8,8-.11s-.81,7.93-5.79,12.06c-2.75,2.28-4.07,2.55-5.27,2.1-1.47-.56-2.48-2.62-3.59-5.75s-1.14-9.87.79-16.75a20,20,0,0,1,2.35-5.22C273.81,132,287,125.63,293.82,124.52Z" style="fill:#f5f5f5"></path><path d="M283.87,129.67a41.86,41.86,0,0,0-12.29,12.15,28,28,0,0,0-3.53,8,26.63,26.63,0,0,0-.73,8.66,0,0,0,0,0,.06,0,33.77,33.77,0,0,1,1.22-8.51,31.33,31.33,0,0,1,3.37-7.88,42.53,42.53,0,0,1,11.94-12.34,0,0,0,0,0,0,0Z" style="fill:#fff"></path><path d="M231.28,127.93h0a25.54,25.54,0,0,1,3,.14,48.62,48.62,0,0,1,11.6,2.83c1.39.51,2.78,1.1,4.15,1.75.68.33,1.36.67,2,1a33.73,33.73,0,0,1,8.89,6.73,21.43,21.43,0,0,1,3.06,4.3c.11.2.22.39.32.6h0c.25.53.49,1.05.71,1.57a28.93,28.93,0,0,1,2.61,14.28c-.12,3.46-1.3,7.41-2,8.06a1.7,1.7,0,0,1-.3.23c-1,.63-2.56.26-5.49-1.38-5.88-3.29-8.18-11.61-8.18-11.61l8.16-1.39L249.44,153l-4.26-6.65,7.84-1.42-10.66-1.64A158.24,158.24,0,0,0,231.3,128l0,0Z" style="fill:#f0f0f0"></path><path d="M234.32,128.07a48.62,48.62,0,0,1,11.6,2.83c1.39.51,2.78,1.1,4.15,1.75.68.33,1.36.67,2,1a33.73,33.73,0,0,1,8.89,6.73,21.43,21.43,0,0,1,3.06,4.3c.11.2.22.39.32.6h0c.25.53.49,1.05.71,1.57a28.93,28.93,0,0,1,2.61,14.28c-.12,3.46-1.3,7.41-2,8.06a1.7,1.7,0,0,1-.3.23,1.94,1.94,0,0,1-.65.24c.73-5.37-1.91-19-5.91-24.57-4.16-5.82-14-14.26-27.57-17.17v0A25.06,25.06,0,0,1,234.32,128.07Z" style="fill:#e6e6e6"></path><path d="M264.81,169.69a45.94,45.94,0,0,0-.77-11.87,38.33,38.33,0,0,0-3.93-11.25,33.54,33.54,0,0,0-8-8.9,44.76,44.76,0,0,0-10.22-6.12s0,0,0,0,0,0,0,0a58.94,58.94,0,0,1,9.83,6.58,44.4,44.4,0,0,1,4.32,4,26.44,26.44,0,0,1,3.61,4.63,38.14,38.14,0,0,1,4.07,11,45.75,45.75,0,0,1,1,11.79s0,0,0,0A0,0,0,0,0,264.81,169.69Z" style="fill:#fff"></path></g></g></g></g><g id="freepik--match-score--inject-5"><g id="freepik--match-score--inject-5"><polygon points="316.13 54.55 405.58 106.19 405.58 147.51 316.13 95.87 316.13 54.55" style="fill:#ebebeb"></polygon><polygon points="316.13 54.55 319.71 52.49 409.16 104.13 405.58 106.19 316.13 54.55" style="fill:#fafafa"></polygon><polygon points="409.16 104.13 409.16 145.44 405.58 147.51 405.58 106.19 409.16 104.13" style="fill:#e0e0e0"></polygon><polygon points="344.75 100.88 344.75 88.48 376.96 107.08 376.95 119.47 344.75 100.88" style="fill:#fafafa"></polygon><path d="M353.24,103.19l-1.29-.75a2.46,2.46,0,0,1-.91-1.1,3.75,3.75,0,0,1-.37-1.62v-4a1.59,1.59,0,0,1,.37-1.18.69.69,0,0,1,.91,0l1.29.74a2.32,2.32,0,0,1,.91,1.11,3.76,3.76,0,0,1,.38,1.61v4a1.59,1.59,0,0,1-.38,1.18A.7.7,0,0,1,353.24,103.19ZM352,101.45l1.29.75a.44.44,0,0,0,.31,0l-2.24-6v3.88a1.85,1.85,0,0,0,.19.81A1.23,1.23,0,0,0,352,101.45Zm1.29-5.2L352,95.51a.37.37,0,0,0-.3-.06l2.24,6V97.61a2,2,0,0,0-.19-.81A1.23,1.23,0,0,0,353.24,96.25Z" style="fill:#e0e0e0"></path><path d="M358.39,106.16l-1.29-.74a2.48,2.48,0,0,1-.91-1.11,3.75,3.75,0,0,1-.37-1.62v-4a1.62,1.62,0,0,1,.37-1.19.69.69,0,0,1,.91-.05l1.29.74a2.42,2.42,0,0,1,.91,1.11,3.77,3.77,0,0,1,.38,1.62v4a1.58,1.58,0,0,1-.38,1.18A.69.69,0,0,1,358.39,106.16Zm-1.29-1.73,1.29.74a.39.39,0,0,0,.31,0l-2.24-6v3.88a1.78,1.78,0,0,0,.19.81A1.25,1.25,0,0,0,357.1,104.43Zm1.29-5.21-1.29-.74a.37.37,0,0,0-.3,0l2.23,6v-3.87a1.91,1.91,0,0,0-.18-.81A1.26,1.26,0,0,0,358.39,99.22Z" style="fill:#e0e0e0"></path><path d="M360.59,104.23c0-.3.13-.43.31-.33a.8.8,0,0,1,.3.68c0,.28-.12.42-.31.31A.79.79,0,0,1,360.59,104.23Zm0,2.79c0-.29.13-.42.31-.32a.8.8,0,0,1,.3.68c0,.27-.12.42-.31.31A.79.79,0,0,1,360.59,107Z" style="fill:#e0e0e0"></path><path d="M364.61,106.77l-1.29-.74a.36.36,0,0,0-.46,0,.82.82,0,0,0-.19.59v.74a.54.54,0,0,0,.05.21.26.26,0,0,0,.12.13l2.74,1.59a.62.62,0,0,1,.22.27.88.88,0,0,1,.1.41.34.34,0,0,1-.1.29.17.17,0,0,1-.22,0l-3.23-1.86a.6.6,0,0,1-.22-.28.82.82,0,0,1-.1-.4v-1.49a1.58,1.58,0,0,1,.38-1.18.68.68,0,0,1,.91-.06l1.29.74a.33.33,0,0,0,.45,0,.78.78,0,0,0,.19-.59v-1a1.78,1.78,0,0,0-.19-.81,1.14,1.14,0,0,0-.45-.56l-1.29-.74a.34.34,0,0,0-.46,0,.8.8,0,0,0-.19.59.37.37,0,0,1-.09.29.16.16,0,0,1-.22,0,.55.55,0,0,1-.23-.28.82.82,0,0,1-.1-.4,1.6,1.6,0,0,1,.38-1.19.69.69,0,0,1,.91,0l1.29.74a2.48,2.48,0,0,1,.91,1.11,3.77,3.77,0,0,1,.38,1.62v1a1.58,1.58,0,0,1-.38,1.18A.69.69,0,0,1,364.61,106.77Z" style="fill:#e0e0e0"></path><path d="M371,111v.49a1.58,1.58,0,0,1-.38,1.19.69.69,0,0,1-.91,0l-1.28-.74a2.42,2.42,0,0,1-.91-1.11,3.77,3.77,0,0,1-.38-1.62v-.49a2.2,2.2,0,0,1,.12-.76,1,1,0,0,1,.32-.48,4,4,0,0,1-.44-1.74v-.49a1.62,1.62,0,0,1,.38-1.19.69.69,0,0,1,.91,0l1.28.74a2.42,2.42,0,0,1,.91,1.11,3.63,3.63,0,0,1,.38,1.62V108a2.2,2.2,0,0,1-.12.76,1.07,1.07,0,0,1-.32.48,3.74,3.74,0,0,1,.32.85A3.46,3.46,0,0,1,371,111Zm-.64-3.84a1.78,1.78,0,0,0-.19-.81,1.26,1.26,0,0,0-.46-.56l-1.28-.74a.36.36,0,0,0-.46,0,.82.82,0,0,0-.19.59v.5a1.91,1.91,0,0,0,.19.8,1.26,1.26,0,0,0,.46.56l1.28.74a.36.36,0,0,0,.46,0,.76.76,0,0,0,.19-.59Zm0,3.46a1.85,1.85,0,0,0-.19-.81,1.23,1.23,0,0,0-.46-.55l-1.28-.74a.35.35,0,0,0-.46,0,.8.8,0,0,0-.19.59v.49a1.92,1.92,0,0,0,.19.81,1.26,1.26,0,0,0,.46.56l1.28.74a.36.36,0,0,0,.46,0,.78.78,0,0,0,.19-.59Z" style="fill:#e0e0e0"></path><polygon points="319.71 61.63 341.18 74.02 341.18 98.81 319.71 86.42 319.71 61.63" style="fill:#fafafa"></polygon><path d="M327.47,84.59l-2-1.14a3.68,3.68,0,0,1-1.4-1.71,5.74,5.74,0,0,1-.58-2.49v-6.1a2.41,2.41,0,0,1,.58-1.82,1.05,1.05,0,0,1,1.4-.09l2,1.14a3.74,3.74,0,0,1,1.4,1.71,5.74,5.74,0,0,1,.58,2.49v6.1a2.41,2.41,0,0,1-.58,1.82A1.06,1.06,0,0,1,327.47,84.59Zm-2-2.67,2,1.14a.63.63,0,0,0,.47.09l-3.44-9.3v6a2.82,2.82,0,0,0,.29,1.25A1.8,1.8,0,0,0,325.49,81.92Zm2-8-2-1.14a.62.62,0,0,0-.48-.09l3.45,9.3V76a3,3,0,0,0-.29-1.25A1.86,1.86,0,0,0,327.47,73.91Z" style="fill:#e0e0e0"></path><path d="M335.4,84.59l-2-1.14a.54.54,0,0,0-.71,0,1.23,1.23,0,0,0-.29.91v1.14a.68.68,0,0,0,.08.31.51.51,0,0,0,.17.22l4.22,2.43a1,1,0,0,1,.35.43,1.45,1.45,0,0,1,.15.63.58.58,0,0,1-.15.45.27.27,0,0,1-.35,0l-5-2.87a.84.84,0,0,1-.35-.42,1.38,1.38,0,0,1-.15-.62V83.83A2.45,2.45,0,0,1,332,82a1.07,1.07,0,0,1,1.41-.09l2,1.14a.53.53,0,0,0,.7,0,1.16,1.16,0,0,0,.3-.9V80.59a3,3,0,0,0-.29-1.25,1.87,1.87,0,0,0-.71-.85l-2-1.15a.55.55,0,0,0-.71,0,1.23,1.23,0,0,0-.29.91.62.62,0,0,1-.14.46.28.28,0,0,1-.35,0,1,1,0,0,1-.35-.43,1.39,1.39,0,0,1-.15-.63A2.47,2.47,0,0,1,332,75.9a1.08,1.08,0,0,1,1.41-.08l2,1.14a3.76,3.76,0,0,1,1.41,1.71,5.88,5.88,0,0,1,.58,2.49v1.53a2.47,2.47,0,0,1-.58,1.82A1.08,1.08,0,0,1,335.4,84.59Z" style="fill:#e0e0e0"></path><path d="M324.24,93.17l12.4,7.16a2,2,0,0,1,1,1.58c0,.57-.43.79-1,.48l-12.4-7.16a2,2,0,0,1-.95-1.58C323.29,93.08,323.71,92.86,324.24,93.17Z" style="opacity:0.15"></path><polygon points="380.53 96.75 402 109.14 402 133.93 380.53 121.54 380.53 96.75" style="fill:#fafafa"></polygon><path d="M388.3,119.71l-2-1.15a3.72,3.72,0,0,1-1.4-1.7,5.74,5.74,0,0,1-.58-2.49v-6.11a2.42,2.42,0,0,1,.58-1.82,1.07,1.07,0,0,1,1.4-.08l2,1.14a3.83,3.83,0,0,1,1.4,1.7,5.93,5.93,0,0,1,.58,2.5v6.1a2.47,2.47,0,0,1-.58,1.82A1.07,1.07,0,0,1,388.3,119.71Zm-2-2.67,2,1.14a.61.61,0,0,0,.47.08L385.32,109v6a3,3,0,0,0,.29,1.25A2,2,0,0,0,386.31,117Zm2-8-2-1.15a.62.62,0,0,0-.47-.08l3.45,9.3v-6a2.93,2.93,0,0,0-.29-1.25A1.92,1.92,0,0,0,388.3,109Z" style="fill:#e0e0e0"></path><path d="M398.2,121.61v.77a2.42,2.42,0,0,1-.58,1.82,1.07,1.07,0,0,1-1.4.08l-2-1.14a3.71,3.71,0,0,1-1.4-1.7,5.75,5.75,0,0,1-.58-2.5.65.65,0,0,1,.14-.45.27.27,0,0,1,.35,0,1,1,0,0,1,.35.44,1.38,1.38,0,0,1,.15.62,2.92,2.92,0,0,0,.29,1.24,1.81,1.81,0,0,0,.7.85l2,1.15a.54.54,0,0,0,.7,0,1.2,1.2,0,0,0,.29-.91V121a2.78,2.78,0,0,0-.29-1.24,1.83,1.83,0,0,0-.7-.86l-.49-.28a.93.93,0,0,1-.36-.43,1.47,1.47,0,0,1-.14-.61.65.65,0,0,1,.14-.46.27.27,0,0,1,.36,0l.49.29a.54.54,0,0,0,.7,0,1.2,1.2,0,0,0,.29-.91v-.77a2.78,2.78,0,0,0-.29-1.24,1.83,1.83,0,0,0-.7-.86l-2-1.14a.54.54,0,0,0-.7,0,1.24,1.24,0,0,0-.29.91.59.59,0,0,1-.15.46.27.27,0,0,1-.35,0,.94.94,0,0,1-.35-.42,1.56,1.56,0,0,1-.14-.63,2.42,2.42,0,0,1,.58-1.82,1.08,1.08,0,0,1,1.4-.09l2,1.15a3.65,3.65,0,0,1,1.4,1.7,5.74,5.74,0,0,1,.58,2.49V117a3.41,3.41,0,0,1-.18,1.16,1.69,1.69,0,0,1-.49.74,6,6,0,0,1,.49,1.31A5.41,5.41,0,0,1,398.2,121.61Z" style="fill:#e0e0e0"></path><path d="M385.06,128.29l12.41,7.16a2.05,2.05,0,0,1,.95,1.59c0,.57-.42.78-.95.48l-12.41-7.16a2.08,2.08,0,0,1-.95-1.59C384.11,128.2,384.54,128,385.06,128.29Z" style="opacity:0.15"></path><path d="M354.73,83.62a2.58,2.58,0,0,1,.7.57,4.16,4.16,0,0,1,.51.7,3.94,3.94,0,0,1,.3.72,2.86,2.86,0,0,1,.12.63.22.22,0,0,1,0,.16.13.13,0,0,1-.12,0l-.42-.24a.43.43,0,0,1-.15-.15,2.2,2.2,0,0,1-.09-.21,2.39,2.39,0,0,0-.27-.56,1.6,1.6,0,0,0-.54-.48,1,1,0,0,0-.29-.12.41.41,0,0,0-.25,0,.27.27,0,0,0-.16.14.54.54,0,0,0-.06.27,1.08,1.08,0,0,0,.06.38,1.07,1.07,0,0,0,.19.34,3.71,3.71,0,0,0,.35.38l.55.51a7,7,0,0,1,.61.63,3.36,3.36,0,0,1,.43.63,3,3,0,0,1,.32,1.37,1.79,1.79,0,0,1-.12.7.82.82,0,0,1-.34.41.94.94,0,0,1-.54.09,2.16,2.16,0,0,1-.72-.27,3.59,3.59,0,0,1-.64-.5,3.41,3.41,0,0,1-.53-.66,3.51,3.51,0,0,1-.38-.78,2.71,2.71,0,0,1-.16-.83.16.16,0,0,1,0-.15.09.09,0,0,1,.12,0l.41.24a.44.44,0,0,1,.16.14.91.91,0,0,1,.09.22c0,.09.06.19.1.29a1.3,1.3,0,0,0,.16.31,1.68,1.68,0,0,0,.25.29,2,2,0,0,0,.38.28,1.81,1.81,0,0,0,.35.16.5.5,0,0,0,.29,0,.37.37,0,0,0,.2-.12.52.52,0,0,0,.08-.31.85.85,0,0,0-.09-.38,1.47,1.47,0,0,0-.25-.36,4.14,4.14,0,0,0-.42-.42l-.58-.54c-.19-.19-.37-.38-.52-.56a3,3,0,0,1-.36-.59,2.69,2.69,0,0,1-.22-.64,3.48,3.48,0,0,1-.07-.75,1.78,1.78,0,0,1,.12-.69.79.79,0,0,1,.32-.41.82.82,0,0,1,.5-.1A1.55,1.55,0,0,1,354.73,83.62Z" style="fill:#fff"></path><path d="M359.93,92a.33.33,0,0,1,.11.14.53.53,0,0,1,0,.2V93a.21.21,0,0,1,0,.15.09.09,0,0,1-.11,0l-2.61-1.51c-.05,0-.08-.07-.12-.14a.45.45,0,0,1,0-.2V85.36a.21.21,0,0,1,0-.15.1.1,0,0,1,.12,0l2.56,1.48a.33.33,0,0,1,.11.14.49.49,0,0,1,.05.2v.65a.21.21,0,0,1-.05.15.09.09,0,0,1-.11,0L358,86.72v1.45l1.79,1a.29.29,0,0,1,.11.13.54.54,0,0,1,.05.21v.65a.2.2,0,0,1-.05.14.09.09,0,0,1-.11,0l-1.79-1v1.52Z" style="fill:#fff"></path><path d="M363.6,88.83a.27.27,0,0,1,.11.14.46.46,0,0,1,.05.2v.65a.2.2,0,0,1-.05.14.08.08,0,0,1-.11,0l-1.07-.62v5a.21.21,0,0,1,0,.15s-.07,0-.12,0l-.48-.27a.33.33,0,0,1-.11-.14.53.53,0,0,1,0-.2v-5l-1.07-.62a.27.27,0,0,1-.11-.14.46.46,0,0,1-.05-.2v-.65a.2.2,0,0,1,.05-.14.08.08,0,0,1,.11,0Z" style="fill:#fff"></path><path d="M368.26,91.52a.27.27,0,0,1,.11.14.37.37,0,0,1,.05.2v.65a.25.25,0,0,1,0,.16.45.45,0,0,1-.09.1l-.87.91a3.17,3.17,0,0,1,.49.48,3.34,3.34,0,0,1,.37.6,3.74,3.74,0,0,1,.24.69,3.84,3.84,0,0,1,.08.76,2.13,2.13,0,0,1-.12.78.83.83,0,0,1-.34.43.77.77,0,0,1-.51.1,1.66,1.66,0,0,1-.64-.23,2.92,2.92,0,0,1-.72-.57,3.23,3.23,0,0,1-.51-.69,2.85,2.85,0,0,1-.31-.72,2.48,2.48,0,0,1-.13-.66.22.22,0,0,1,0-.16.13.13,0,0,1,.12,0l.47.27a.4.4,0,0,1,.1.12l.08.22a1.61,1.61,0,0,0,.09.26,2.63,2.63,0,0,0,.16.26,2.05,2.05,0,0,0,.25.27,2.8,2.8,0,0,0,.36.25.7.7,0,0,0,.59.12c.14-.07.22-.24.22-.51a1.23,1.23,0,0,0-.22-.72,2,2,0,0,0-.59-.52l-.49-.28a.34.34,0,0,1-.12-.14.51.51,0,0,1,0-.2v-.65a.25.25,0,0,1,0-.16l.09-.11.83-.86-1.64-1a.24.24,0,0,1-.11-.13.41.41,0,0,1-.05-.21v-.65a.16.16,0,0,1,.05-.14.08.08,0,0,1,.11,0Z" style="fill:#fff"></path><path d="M395.24,79.59H398V98.82h0a.66.66,0,0,1-.4.63,2.14,2.14,0,0,1-2,0,.65.65,0,0,1-.39-.63h0Z" style="fill:#e0e0e0"></path><path d="M398,79.59c0,.42-.63.76-1.39.76s-1.39-.34-1.39-.76.62-.77,1.39-.77S398,79.16,398,79.59Z" style="fill:#f0f0f0"></path><path d="M330.83,42.4h2.78V61.63h0a.64.64,0,0,1-.39.64,2.2,2.2,0,0,1-2,0,.64.64,0,0,1-.39-.64h0Z" style="fill:#e0e0e0"></path><path d="M333.61,42.4c0,.43-.62.77-1.39.77s-1.39-.34-1.39-.77.63-.76,1.39-.76S333.61,42,333.61,42.4Z" style="fill:#f0f0f0"></path></g></g><g id="freepik--character-1--inject-5"><g id="freepik--Character--inject-5"><g id="freepik--Bottom--inject-5"><path d="M66.66,260.13c-.48-2.24,3.32-5.56,4.78-6.93,4.31-4,16.57-15,19.4-17.95,3.42-3.61,5.5-5.25,6.8-11,1.58-7,6.63-32,6.63-32s6.37-6.43,6.33-13.52l-29.71-1.82s0,4.27-.11,13.79c0,7-.87,33-.87,33a21.92,21.92,0,0,0-6.64,5.49c-2,2.6-6.51,11-10.33,17.3-2.22,3.64-4.91,8.72-6.79,12.35-1.36,2.64-.35,3.25,3.12,3.36S66.66,260.13,66.66,260.13Z" style="fill:#ffbda7"></path><path d="M80.61,275.1c.14.65.11,1.1-2.24,2.11a17.64,17.64,0,0,1-9.13.69c-3.12-.53-6-3-7.38-4.86a17.31,17.31,0,0,0-6-4.22c-1.79-.82-2.48-1.31-2.39-1.88s.5-2.11.5-2.11Z" style="fill:#ebebeb"></path><path d="M53.94,262.6c.29-1.78,1.82-3.05,2.26-4.79a2.63,2.63,0,0,1,.28-.86.68.68,0,0,1,.77-.32,4.27,4.27,0,0,0-.4,1.07,1.62,1.62,0,0,0,.3,1.07,4.89,4.89,0,0,0,.4.39,1.84,1.84,0,0,1,.44.72,3.08,3.08,0,0,0,.19.56.47.47,0,0,0,.49.25.63.63,0,0,0,.28-.21c.31-.34.61-.87,1.1-.9a1.42,1.42,0,0,1,1,.41,3.12,3.12,0,0,1-.22-1.22c.07-.31.28-.45.47-.43a14.16,14.16,0,0,0,5.5-.12c1.62-.4.63.62,1.31,2.14a22.27,22.27,0,0,0,3,4.62,19,19,0,0,0,3.36,3.9c.68.5,1.56,1.13,2.33,1.6,2,1.27,2.77,1.65,3.37,2s.81,1.65.56,2.46-4.66,3-9.52,2.26-6.39-2.7-8.22-5.11a13.17,13.17,0,0,0-5.3-4.16,12.86,12.86,0,0,1-3.87-2.14A12,12,0,0,1,53.94,262.6Z" style="fill:#407BFF"></path><path d="M53.94,262.6c.29-1.78,1.82-3.05,2.26-4.79a2.63,2.63,0,0,1,.28-.86.68.68,0,0,1,.77-.32,4.27,4.27,0,0,0-.4,1.07,1.62,1.62,0,0,0,.3,1.07,4.89,4.89,0,0,0,.4.39,1.84,1.84,0,0,1,.44.72,3.08,3.08,0,0,0,.19.56.47.47,0,0,0,.49.25.63.63,0,0,0,.28-.21c.31-.34.61-.87,1.1-.9a1.42,1.42,0,0,1,1,.41,3.12,3.12,0,0,1-.22-1.22c.07-.31.28-.45.47-.43a14.16,14.16,0,0,0,5.5-.12c1.62-.4.63.62,1.31,2.14a22.27,22.27,0,0,0,3,4.62,19,19,0,0,0,3.36,3.9c.68.5,1.56,1.13,2.33,1.6,2,1.27,2.77,1.65,3.37,2s.81,1.65.56,2.46-4.66,3-9.52,2.26-6.39-2.7-8.22-5.11a13.17,13.17,0,0,0-5.3-4.16,12.86,12.86,0,0,1-3.87-2.14A12,12,0,0,1,53.94,262.6Z" style="opacity:0.2"></path><path d="M60.8,258.77c.07-.31.28-.45.47-.43a14.16,14.16,0,0,0,5.5-.12c1.62-.4,1.21.55,1.84,2.21A14.25,14.25,0,0,0,71.1,265a19,19,0,0,0,3.36,3.9l.71.51h0a6.83,6.83,0,0,1-4.06,1.41c-1.31-.71-6-5.11-10.09-10.81A3.12,3.12,0,0,1,60.8,258.77Z" style="fill:#407BFF"></path><path d="M79.85,273.3c-.85.28-1.79.56-1.81.89a6.91,6.91,0,0,1-.35,2.78,2.32,2.32,0,0,1-1.82.95,23.06,23.06,0,0,1-6.51-.14,12,12,0,0,1-6.08-3.39c-2-2-2.36-2.94-4.87-4.39s-3.73-1.78-4.85-2.67a4.73,4.73,0,0,0-.15.77,5.67,5.67,0,0,0,1.46,1,30.55,30.55,0,0,1,4.66,2.33A32.92,32.92,0,0,1,63,274.89a12.37,12.37,0,0,0,6.33,3.39,17.82,17.82,0,0,0,8.9-.64c2.4-1,2.49-1.5,2.68-1.8a5.34,5.34,0,0,0,0-2.42C80.79,273.05,80.46,273.11,79.85,273.3Z" style="fill:#455a64"></path><path d="M70,269.92c1.68-1.3,3-1.85,3.72-1.72,0,0,.65.27.79.68,0,0-1.32,0-3.7,1.72C70.76,270.6,70,270.57,70,269.92Z" style="fill:#455a64"></path><path d="M72.24,266.49a10,10,0,0,0-4.55,1.94.93.93,0,0,1-.76-.68s2.35-2,4.75-2C71.68,265.76,72.25,266,72.24,266.49Z" style="fill:#455a64"></path><path d="M70.4,264.06c-1.09-.32-4.08,1.32-4.94,2.2a.76.76,0,0,1-.77-.76s2.34-2.31,5-2.36C69.72,263.14,70.5,263.43,70.4,264.06Z" style="fill:#455a64"></path><path d="M69.13,261.75c-.54-.06-3.78.23-5.45,1.92a.93.93,0,0,1-.63-.82,8.48,8.48,0,0,1,5.68-2.1A2.68,2.68,0,0,1,69.13,261.75Z" style="fill:#455a64"></path><path d="M126.75,230.49c.79-6.45.89-10.54,2-15.75a15.43,15.43,0,0,1,4-7.75l-30.57-12.9,12.37-18.61c7.9,4.09,25.23,13.66,31.54,18.4,5.3,4,3.35,9,1.13,16.73-1.61,5.56-7.36,17.81-11.07,27.41-1.55,4-.25,5.62.22,7.83,0,0-6.3,2.72-9.28,2.61s-3.16-2.44-3.16-2.44a3.67,3.67,0,0,1,.73-2.68S126.16,235.28,126.75,230.49Z" style="fill:#ffbda7"></path><path d="M150.5,255.78c.22.63.23,1.09-2,2.34a17.61,17.61,0,0,1-9,1.65c-3.16-.19-6.26-2.4-7.86-4a17.43,17.43,0,0,0-6.37-3.57c-1.86-.62-2.6-1-2.57-1.62s.27-2.14.27-2.14Z" style="fill:#ebebeb"></path><path d="M122.66,246.18c.09-1.8,1.48-3.22,1.73-5a3,3,0,0,1,.19-.89c.14-.27.39-.49.68-.4,0,0,0,.78-.06,1.21a1.24,1.24,0,0,0,.24.93,3.68,3.68,0,0,0,.44.34,1.9,1.9,0,0,1,.52.67,3.18,3.18,0,0,0,.24.53.47.47,0,0,0,.51.21.63.63,0,0,0,.26-.25c.27-.37.51-.93,1-1a1.45,1.45,0,0,1,1,.31,3.31,3.31,0,0,1-.35-1.19c0-.32.23-.48.42-.48a14,14,0,0,0,5.46-.7c1.57-.57.69.55,1.53,2a22.44,22.44,0,0,0,3.49,4.28,18.46,18.46,0,0,0,3.76,3.52c.73.42,1.67.95,2.48,1.35,2.18,1,2.93,1.34,3.56,1.6s1,1.56.82,2.39-4.31,3.5-9.23,3.25-6.63-2-8.71-4.21a13.17,13.17,0,0,0-5.71-3.57,12.91,12.91,0,0,1-4.07-1.72A11.71,11.71,0,0,1,122.66,246.18Z" style="fill:#407BFF"></path><path d="M122.66,246.18c.09-1.8,1.48-3.22,1.73-5a3,3,0,0,1,.19-.89c.14-.27.39-.49.68-.4,0,0,0,.78-.06,1.21a1.24,1.24,0,0,0,.24.93,3.68,3.68,0,0,0,.44.34,1.9,1.9,0,0,1,.52.67,3.18,3.18,0,0,0,.24.53.47.47,0,0,0,.51.21.63.63,0,0,0,.26-.25c.27-.37.51-.93,1-1a1.45,1.45,0,0,1,1,.31,3.31,3.31,0,0,1-.35-1.19c0-.32.23-.48.42-.48a14,14,0,0,0,5.46-.7c1.57-.57.69.55,1.53,2a22.44,22.44,0,0,0,3.49,4.28,18.46,18.46,0,0,0,3.76,3.52c.73.42,1.67.95,2.48,1.35,2.18,1,2.93,1.34,3.56,1.6s1,1.56.82,2.39-4.31,3.5-9.23,3.25-6.63-2-8.71-4.21a13.17,13.17,0,0,0-5.71-3.57,12.91,12.91,0,0,1-4.07-1.72A11.71,11.71,0,0,1,122.66,246.18Z" style="opacity:0.2"></path><path d="M129.07,241.65c0-.32.23-.48.42-.48a14,14,0,0,0,5.46-.7c1.57-.57,1.26.42,2.06,2a14.45,14.45,0,0,0,3,4.26,18.46,18.46,0,0,0,3.76,3.52l.76.43h0a6.85,6.85,0,0,1-3.89,1.82c-1.37-.56-6.51-4.44-11.18-9.67A3.31,3.31,0,0,1,129.07,241.65Z" style="fill:#407BFF"></path><path d="M149.56,254.08c-.82.36-1.72.74-1.7,1.07s.3,2.13-.06,2.8a2.31,2.31,0,0,1-1.71,1.14,23.78,23.78,0,0,1-6.49.56,12.11,12.11,0,0,1-6.4-2.73c-2.16-1.74-2.66-2.68-5.31-3.85s-3.9-1.37-5.11-2.14a5,5,0,0,0-.07.78,5.77,5.77,0,0,0,1.55.81,28.85,28.85,0,0,1,4.89,1.83,31.26,31.26,0,0,1,3.86,3.09,12.39,12.39,0,0,0,6.66,2.7,18,18,0,0,0,8.78-1.58c2.27-1.25,2.31-1.76,2.47-2.08a5.53,5.53,0,0,0-.25-2.4C150.46,253.73,150.15,253.82,149.56,254.08Z" style="fill:#455a64"></path><path d="M139.36,251.77c1.52-1.48,2.82-2.17,3.51-2.11,0,0,.67.2.86.59,0,0-1.31.18-3.5,2.11A.85.85,0,0,1,139.36,251.77Z" style="fill:#455a64"></path><path d="M141.26,248.12a9.88,9.88,0,0,0-4.31,2.4.91.91,0,0,1-.83-.59s2.12-2.24,4.52-2.48C140.64,247.45,141.22,247.66,141.26,248.12Z" style="fill:#455a64"></path><path d="M139.18,245.89c-1.12-.21-3.92,1.74-4.68,2.71a.75.75,0,0,1-.84-.68s2.08-2.54,4.75-2.87C138.41,245.05,139.21,245.25,139.18,245.89Z" style="fill:#455a64"></path><path d="M137.67,243.72c-.54,0-3.73.64-5.22,2.49a.9.9,0,0,1-.7-.74,8.46,8.46,0,0,1,5.42-2.69A2.77,2.77,0,0,1,137.67,243.72Z" style="fill:#455a64"></path><path d="M81.53,171.2c-1.86,3.75-2.49,7.17-2.11,14.27.37,6.92.87,25.48.87,25.48s6,5.25,20.38,2.78c0,0,1.26-5.86,2.57-10.28,1.59-5.37,3-6.43,3-6.43L119,201.17A14.12,14.12,0,0,1,124,190.38c5.46-4.71,8.75-4.87,8.75-4.87s-14.53-8.33-16.57-10a2.85,2.85,0,0,1-.54-3.85Z" style="fill:#37474f"></path><path d="M106.24,197a26.57,26.57,0,0,1,8.19-6.8c-3.24,2.05-5.81,5.22-5.17,6.41s9.69,4.54,9.69,4.54Z" style="fill:#263238"></path></g><g id="freepik--Top--inject-5"><path d="M175.6,150.23c-1.62-1.4-5.54-3.53-7.79-2.35s-2.76,4.84-1.91,7.12S175.6,150.23,175.6,150.23Z" style="fill:#f0997a"></path><path d="M122.17,131.53c4,.16,4.46,2.38,8.92,8.54,3,4.14,8.73,11.66,8.73,11.66s14.2-.41,18.54-.82c3.25-.32,4-1.46,5.66-3A4.59,4.59,0,0,1,168,146.4l0,2.62-.18.53-4,2.74c.05,0,7.06,2.6,6.14,4.44s-1.64,3.05-4,3.19c-1.58.1-4.41-.75-5.66-.55-6.55,1.06-17.8,3.16-20.12,3.48-5,.7-5.23,0-7.95-2.44-4.94-4.44-14.83-15.15-14.83-15.15Z" style="fill:#ffbda7"></path><path d="M117,130.92a11.24,11.24,0,0,1,12.12,4.86c3.87,5.63,8.92,12.87,8.92,12.87a14.24,14.24,0,0,1-9,9.7L115.9,144.71Z" style="fill:#407BFF"></path><path d="M163.15,156.5a1.33,1.33,0,0,0,.63-1.53h0a9.49,9.49,0,0,1-.3-1.5,1.63,1.63,0,0,1,0-.66,1.1,1.1,0,0,1,.36-.47c1,.39,6.84,2.7,6,4.39-1,1.94-1.65,3.15-4.35,3.2l-.39-.37a4.78,4.78,0,0,1-.61-.78,3.13,3.13,0,0,1-.68-1.79,1.09,1.09,0,0,1,0-.26,3.32,3.32,0,0,1-.71.29,3.79,3.79,0,0,1-1.46.07A12.88,12.88,0,0,0,163.15,156.5Z" style="fill:#f0997a"></path><path d="M183.86,148.49l-.37-1.71-10.6-4.88.37,1.71a5,5,0,0,0,.42.95,3.84,3.84,0,0,1-1.69,2.09l-8.27,5.63a.15.15,0,0,0-.07.16c.06.24.36,1.65.38,1.71.13.6,3.42,2.06,4,1.65l7.9-5.81a9,9,0,0,1,5.72-1.56A20.43,20.43,0,0,0,183.86,148.49Z" style="fill:#263238"></path><path d="M197.73,143.26c3.18-2.34,4.54-5.08,4-7.4-.07-.29-.33-1.45-.39-1.74a5.65,5.65,0,0,0-3.44-3.76c-5-2.28-13.49-1.08-19,2.7L177,134.34c-3.3,2.25-4.72,4.93-4.22,7.24.06.3.32,1.46.38,1.75a5.87,5.87,0,0,0,3.64,3.9l.07,0c5.22,2.41,13.74,1.2,19-2.69Z" style="fill:#407BFF"></path><path d="M197.73,143.26c3.18-2.34,4.54-5.08,4-7.4-.07-.29-.33-1.45-.39-1.74a5.65,5.65,0,0,0-3.44-3.76c-5-2.28-13.49-1.08-19,2.7L177,134.34c-3.3,2.25-4.72,4.93-4.22,7.24.06.3.32,1.46.38,1.75a5.87,5.87,0,0,0,3.64,3.9l.07,0c5.22,2.41,13.74,1.2,19-2.69Z" style="opacity:0.4"></path><path d="M176.91,147.26l-.07,0c-5.22-2.4-5-7.41.57-11.18l1.88-1.28c5.54-3.78,14.05-5,19-2.69s4.71,7.29-.58,11.18l-1.79,1.31C190.65,148.46,182.13,149.67,176.91,147.26Z" style="fill:#407BFF"></path><path d="M175.6,131.88a24.93,24.93,0,0,1,8.89-4.73,18.33,18.33,0,0,1,5-.65,17.4,17.4,0,0,1,5,.79,26.4,26.4,0,0,0-9.8.71A47.79,47.79,0,0,0,175.6,131.88Z" style="fill:#e0e0e0"></path><path d="M180.18,125.93a9.06,9.06,0,0,1,2.38-1.31,14.16,14.16,0,0,1,2.62-.73,13.65,13.65,0,0,1,2.71-.22,6.29,6.29,0,0,1,2.67.58,13.6,13.6,0,0,0-2.64.11c-.86.1-1.73.23-2.59.39C183.61,125.06,181.92,125.44,180.18,125.93Z" style="fill:#e0e0e0"></path><path d="M183.86,148.49a20.43,20.43,0,0,1-2.22-.06,9,9,0,0,0-5.72,1.56L168,155.8c-.63.45-4.56-1.36-3.93-1.81l8.28-5.63c1.56-1.07,2.17-2.46,1.47-3.52a4.6,4.6,0,0,1-.58-1.23Z" style="fill:#455a64"></path><path d="M175.6,150.23c-.63.51-1.33,1-2,1.46,0,0-3,.85-3.57,1s-2.21-1.78-3.84-2.09c-.44-.08-1.42.09-1.38.69a1.4,1.4,0,0,0,.34.73,1.59,1.59,0,0,0-.3.34,1.58,1.58,0,0,0-.08,1.13,1.49,1.49,0,0,0,.17.43,2.77,2.77,0,0,0-.42.45c-.14.22-.12.39-.09.81a4.2,4.2,0,0,0,.18.66c-.33.14-.42.44-.33.95a3.66,3.66,0,0,0,.48,1.09,4.16,4.16,0,0,0,2.72,2.14,2.87,2.87,0,0,0,1.84-.55c.42-.23.79-.55,1.2-.79.14-.09,1.11-.47,1.11-.61a2.49,2.49,0,0,0,.62-.44c.31-.31.44-.77.76-1.07a6.21,6.21,0,0,1,1-.6,2,2,0,0,0,.78-1.06,5,5,0,0,1,.21-.76c.3-.67,1.15-1,1.41-1.66a1.5,1.5,0,0,0-.08-1.1,3.49,3.49,0,0,0-.4-.67A2.51,2.51,0,0,0,175.6,150.23Z" style="fill:#ffbda7"></path><path d="M172.16,147a28.15,28.15,0,0,1,1.78,3.07c.33.57-.27,1.24-1.67.66a3.87,3.87,0,0,1-1.92-1.61l-2.6.48.21-3.15C169.3,146.4,171.52,146.36,172.16,147Z" style="fill:#ffbda7"></path><path d="M165.16,152c.54.53,1.12,1,1.69,1.51a13.83,13.83,0,0,0,1.76,1.36,2.37,2.37,0,0,0,2,.06c.74-.16,1.47-.33,2.23-.44-.7.29-1.42.54-2.15.78a2.66,2.66,0,0,1-2.35,0,11.14,11.14,0,0,1-1.76-1.5A10.67,10.67,0,0,1,165.16,152Z" style="fill:#f0997a"></path><path d="M165,153.91c.46.5,1,.94,1.46,1.41s1,1,1.46,1.43a1.49,1.49,0,0,0,1.64.49c.65-.19,1.3-.37,2-.51-.61.31-1.24.58-1.88.84a2,2,0,0,1-1.1.08,1.8,1.8,0,0,1-1-.59c-.45-.5-.93-1-1.38-1.5A9,9,0,0,1,165,153.91Z" style="fill:#f0997a"></path><path d="M119.41,164.75c6.75-12.36,7.92-13.81,8.09-20.2.11-4.29-1.53-7.78-4.34-12.52-.7-1.19-3.43-1.63-8.82-.82-1,.15-15.55,3.23-15.55,3.23-3,.9-6.42,6.36-9.7,13.74a144.67,144.67,0,0,0-9.2,26.36c13.32,15.25,32.78,9.68,37.37,1.55C115.09,171.87,116.39,170.29,119.41,164.75Z" style="fill:#263238"></path><path d="M110.8,130.49c.11-.85-1.29-3-2.82-5.11-1.82-2.48-2.9-4.26-3.21-6.4-.89-6.1,1.72-12.11,5.93-12.14.45-1.79,2.1-3.61,4.94-4.5a14.87,14.87,0,0,1,5.74-.62c2,.2,3.88.85,5.85,1.09,1,.12,2,.14,3,.32a7,7,0,0,1,4.88,3.11,4.63,4.63,0,0,1-.51,5.52,4.14,4.14,0,0,1,.51,5,6.39,6.39,0,0,1-2.58,2.39c-1.1.59-2.23,1-3.33,1.63l-11.6,6.13Z" style="fill:#263238"></path><path d="M111.5,122.17l-2.25,10.22s-.85,3,4,6.46c1.87,1.32,5.91,1.39,6.58-.2l1.24-5Z" style="fill:#ffbda7"></path><path d="M131.21,109.74c.1.17-.69.78-.8.87a8.7,8.7,0,0,1-1.58,1,11.88,11.88,0,0,1-3.54,1.07,22.09,22.09,0,0,1-6-.11.44.44,0,0,0-.28,0,.52.52,0,0,0-.2.26,7.15,7.15,0,0,1-.78,1.76,3.1,3.1,0,0,1-.92.77c-.32.18-.79.26-1,.59a1.4,1.4,0,0,0-.13.34,21,21,0,0,0-.39,3.45,2.06,2.06,0,0,1-.59,1.35.89.89,0,0,1-.6.3.86.86,0,0,1-.68-.46,4.06,4.06,0,0,1-.37-1.08,6.83,6.83,0,0,0-1.31-2.69,3.18,3.18,0,0,0-1.45-1,3,3,0,0,0-3.64,2.31,6.13,6.13,0,0,0,1.34,5.16,3,3,0,0,0,2.31,1,1.86,1.86,0,0,0,1.52-.93l.38-.3.94,3a16.94,16.94,0,0,0,2.15,4.67,13.85,13.85,0,0,0,4.46,2.32l.9.24c2.71.61,6.55.61,8.05.05s4.18-2,4.2-11C133.2,111.75,131.44,110.15,131.21,109.74Z" style="fill:#ffbda7"></path><path d="M112.5,125.86s.25,3.74,2.3,6a16.2,16.2,0,0,0,6,3.06l.32-1.3a23.4,23.4,0,0,1-2.24-.78,16,16,0,0,1-2.51-1.39C113.93,129.83,112.88,126.75,112.5,125.86Z" style="fill:#f0997a"></path><path d="M123.49,120a1.14,1.14,0,1,1-1.18-1.14A1.16,1.16,0,0,1,123.49,120Z" style="fill:#263238"></path><path d="M122.52,116.61l-2.46,1.29a1.47,1.47,0,0,1,.61-1.93A1.36,1.36,0,0,1,122.52,116.61Z" style="fill:#263238"></path><path d="M122.29,125.93l2.93,1.93a1.85,1.85,0,0,1-2.5.51A1.72,1.72,0,0,1,122.29,125.93Z" style="fill:#b16668"></path><path d="M123.59,128.62v0a1.74,1.74,0,0,1-.87-.27,1.71,1.71,0,0,1-.76-1.44A1.7,1.7,0,0,1,123.59,128.62Z" style="fill:#f28f8f"></path><path d="M132.33,117.44l-2.67-.84a1.34,1.34,0,0,1,1.71-.94A1.46,1.46,0,0,1,132.33,117.44Z" style="fill:#263238"></path><path d="M131.66,120a1.14,1.14,0,1,1-1.18-1.14A1.16,1.16,0,0,1,131.66,120Z" style="fill:#263238"></path><polygon points="126.49 118.65 125.83 125.69 129.6 125.44 126.49 118.65" style="fill:#f0997a"></polygon><path d="M73.75,149.69c4.76-4.23,14.35-10.74,17.52-12.86s10.06-2.92,10.06-2.92a13.5,13.5,0,0,1,.85,9.83c-1.59,5.68-7.76,7.7-7.76,7.7l-12,7.11s1.18,9.7,3,14.27c1.35,2.83,1.78,2.81,3.63,3.74s2.69,1.59,4.13,4,3.28,3.85,3.57,4.46-1.28,1.24-2.62.74-3.7-3.55-3.9-3.18.78,3.16,2.43,4.95a38.48,38.48,0,0,0,5.07,4.16c1,.79.93,1.25.49,1.75s-3.8-.32-3.8-.32a6.72,6.72,0,0,1-5,.34,13.24,13.24,0,0,1-6.8-4.69c-1.25-1.65-2.8-7.74-4.84-12.41-2-3.87-6.23-13.55-7.2-16.92C69.22,154.88,69,153.92,73.75,149.69Z" style="fill:#ffbda7"></path><path d="M102.28,133.71a26,26,0,0,0-9.45,1.9c-2.08,1-13.52,9.22-13.52,9.22s.86,9.18,6.13,12.64c0,0,11.82-6.18,14.58-8.16S106.1,139.1,102.28,133.71Z" style="fill:#407BFF"></path></g></g></g><g id="freepik--table-tennis--inject-5"><g id="freepik--tenis-table--inject-5"><polygon points="267.04 239.85 267.04 302.95 268.64 302.02 268.64 238.92 267.04 239.85" style="fill:#37474f"></polygon><polygon points="267.04 239.85 267.04 302.95 265.43 302.02 265.43 238.92 267.04 239.85" style="fill:#263238"></polygon><polygon points="173.81 323.37 267.04 269.54 265.43 268.62 172.2 322.44 173.81 323.37" style="fill:#37474f"></polygon><polygon points="173.81 323.37 267.04 269.54 267.04 271.4 173.81 325.22 173.81 323.37" style="fill:#263238"></polygon><polygon points="172.2 294.6 172.2 357.7 173.81 356.78 173.81 293.67 172.2 294.6" style="fill:#37474f"></polygon><polygon points="172.2 294.6 172.2 357.7 170.6 356.78 170.6 293.67 172.2 294.6" style="fill:#263238"></polygon><polygon points="199.53 200.87 199.53 263.98 201.14 263.05 201.14 199.94 199.53 200.87" style="fill:#37474f"></polygon><polygon points="199.53 200.87 199.53 263.98 197.92 263.05 197.92 199.94 199.53 200.87" style="fill:#263238"></polygon><polygon points="106.3 284.39 199.53 230.57 197.92 229.64 104.69 283.46 106.3 284.39" style="fill:#37474f"></polygon><polygon points="106.3 284.39 199.53 230.57 199.53 232.42 106.3 286.25 106.3 284.39" style="fill:#263238"></polygon><polygon points="104.69 255.62 104.69 318.73 106.3 317.8 106.3 254.7 104.69 255.62" style="fill:#37474f"></polygon><polygon points="104.69 255.62 104.69 318.73 103.09 317.8 103.09 254.7 104.69 255.62" style="fill:#263238"></polygon><polygon points="353.83 289.96 353.83 353.06 355.44 352.14 355.44 289.03 353.83 289.96" style="fill:#37474f"></polygon><polygon points="353.83 289.96 353.83 353.06 352.23 352.14 352.23 289.03 353.83 289.96" style="fill:#263238"></polygon><polygon points="260.61 373.48 353.83 319.66 352.23 318.73 259 372.55 260.61 373.48" style="fill:#37474f"></polygon><polygon points="260.61 373.48 353.83 319.66 353.83 321.51 260.61 375.34 260.61 373.48" style="fill:#263238"></polygon><polygon points="259 344.71 259 407.82 260.61 406.89 260.61 343.78 259 344.71" style="fill:#37474f"></polygon><polygon points="259 344.71 259 407.82 257.39 406.89 257.39 343.78 259 344.71" style="fill:#263238"></polygon><polygon points="286.32 250.98 286.32 314.09 287.93 313.16 287.93 250.06 286.32 250.98" style="fill:#37474f"></polygon><polygon points="286.32 250.98 286.32 314.09 284.72 313.16 284.72 250.06 286.32 250.98" style="fill:#263238"></polygon><polygon points="193.1 334.5 286.32 280.68 284.72 279.75 191.49 333.58 193.1 334.5" style="fill:#37474f"></polygon><polygon points="193.1 334.5 286.32 280.68 286.32 282.54 193.1 336.36 193.1 334.5" style="fill:#263238"></polygon><polygon points="191.49 305.74 191.49 368.84 193.1 367.91 193.1 304.81 191.49 305.74" style="fill:#37474f"></polygon><polygon points="191.49 305.74 191.49 368.84 189.88 367.91 189.88 304.81 191.49 305.74" style="fill:#263238"></polygon><path d="M305.61,206.44l-1.6-.93-1.61.93v14.85l-1.61.93v11.13l-2.43,1.4v1.83l1.61.93,4-2.3V224.07l1.6-.93Zm-3.21,16.7h0l1.61-.92h0Z" style="fill:#263238"></path><polygon points="302.4 234.28 302.4 223.14 304.01 222.22 304.01 207.37 305.61 206.44 305.61 223.14 304.01 224.07 304.01 235.21 299.97 237.51 299.97 235.68 302.4 234.28" style="fill:#37474f"></polygon><polygon points="304.01 205.51 302.4 206.44 304.01 207.37 305.61 206.44 304.01 205.51" style="fill:#455a64"></polygon><polygon points="276.68 356.78 395.63 288.11 395.63 280.68 276.68 349.35 276.68 356.78" style="fill:#e0e0e0"></polygon><polygon points="276.68 356.78 83.8 245.42 83.8 237.99 276.68 349.35 276.68 356.78" style="fill:#e0e0e0"></polygon><polygon points="276.68 356.78 83.8 245.42 83.8 237.99 276.68 349.35 276.68 356.78" style="opacity:0.1"></polygon><polygon points="395.63 280.68 276.68 349.35 83.8 237.99 202.74 169.32 395.63 280.68" style="fill:#f0f0f0"></polygon><polygon points="276.68 345.64 389.2 280.68 202.74 173.03 90.23 237.99 276.68 345.64" style="fill:#407BFF"></polygon><polygon points="276.68 345.64 389.2 280.68 202.74 173.03 90.23 237.99 276.68 345.64" style="fill:#fff;opacity:0.15"></polygon><polygon points="144.09 203.19 336.97 314.55 335.4 315.46 142.52 204.1 144.09 203.19" style="fill:#fafafa"></polygon><path d="M179,293.07l-.06,0a.11.11,0,0,1-.05-.09V281.43a.11.11,0,0,1,.22,0v11.33L303,221.22V209.76a.11.11,0,1,1,.22,0v11.53a.11.11,0,0,1-.06.1L179.06,293.05Z" style="fill:#263238"></path><path d="M179,293.07a.11.11,0,0,1-.1-.06.11.11,0,0,1,0-.15l124.13-71.67a.13.13,0,0,1,.16,0,.12.12,0,0,1-.05.16L179.06,293.05Z" style="fill:#263238"></path><path d="M179,291.79a.11.11,0,0,1-.1-.06.11.11,0,0,1,0-.15l124.13-71.67a.13.13,0,0,1,.16,0,.11.11,0,0,1-.05.15L179.06,291.77Z" style="fill:#263238"></path><path d="M179,290.51a.11.11,0,0,1-.1-.06.11.11,0,0,1,0-.15l124.13-71.67a.13.13,0,0,1,.16,0,.11.11,0,0,1-.05.15L179.06,290.49Z" style="fill:#263238"></path><path d="M179,289.23a.11.11,0,0,1-.1-.06.11.11,0,0,1,0-.15l124.13-71.67a.13.13,0,0,1,.16,0,.11.11,0,0,1-.05.15L179.06,289.21Z" style="fill:#263238"></path><path d="M179,288a.11.11,0,0,1-.1-.06.11.11,0,0,1,0-.15l124.13-71.67a.13.13,0,0,1,.16,0,.11.11,0,0,1-.05.15L179.06,287.93Z" style="fill:#263238"></path><path d="M179,286.67a.11.11,0,0,1-.1-.06.11.11,0,0,1,0-.15l124.13-71.67a.13.13,0,0,1,.16,0,.11.11,0,0,1-.05.15L179.06,286.65Z" style="fill:#263238"></path><path d="M179,285.39a.11.11,0,0,1-.1-.06.11.11,0,0,1,0-.15l124.13-71.67a.13.13,0,0,1,.16,0,.11.11,0,0,1-.05.15L179.06,285.37Z" style="fill:#263238"></path><path d="M179,284.11a.11.11,0,0,1-.1-.06.11.11,0,0,1,0-.15l124.13-71.67a.12.12,0,0,1,.16,0,.11.11,0,0,1-.05.15L179.06,284.09Z" style="fill:#263238"></path><path d="M179,282.82a.12.12,0,0,1-.1-.05.11.11,0,0,1,0-.15L303.07,211a.12.12,0,0,1,.16,0,.11.11,0,0,1-.05.15L179.06,282.81Z" style="fill:#263238"></path><path d="M179,281.54a.12.12,0,0,1-.1-.05.11.11,0,0,1,0-.15l124.13-71.67a.12.12,0,0,1,.16,0,.11.11,0,0,1-.05.15L179.06,281.53Z" style="fill:#263238"></path><path d="M179,293.07a.11.11,0,0,1-.11-.11V281.43a.11.11,0,0,1,.22,0V293A.11.11,0,0,1,179,293.07Z" style="fill:#263238"></path><path d="M180.1,292.43a.11.11,0,0,1-.11-.11V280.8a.11.11,0,0,1,.22,0v11.52A.11.11,0,0,1,180.1,292.43Z" style="fill:#263238"></path><path d="M181.2,291.8a.11.11,0,0,1-.11-.11V280.16a.11.11,0,0,1,.22,0v11.53A.11.11,0,0,1,181.2,291.8Z" style="fill:#263238"></path><path d="M182.3,291.17a.12.12,0,0,1-.12-.12V279.53a.11.11,0,0,1,.12-.11.11.11,0,0,1,.11.11v11.52A.11.11,0,0,1,182.3,291.17Z" style="fill:#263238"></path><path d="M183.39,290.53a.11.11,0,0,1-.11-.11V278.9a.11.11,0,0,1,.11-.12.12.12,0,0,1,.12.12v11.52A.11.11,0,0,1,183.39,290.53Z" style="fill:#263238"></path><path d="M184.49,289.9a.11.11,0,0,1-.11-.12V278.26a.11.11,0,0,1,.22,0v11.52A.11.11,0,0,1,184.49,289.9Z" style="fill:#263238"></path><path d="M185.59,289.26a.11.11,0,0,1-.11-.11V277.63a.11.11,0,1,1,.22,0v11.52A.11.11,0,0,1,185.59,289.26Z" style="fill:#263238"></path><path d="M186.69,288.63a.11.11,0,0,1-.11-.11V277a.11.11,0,0,1,.22,0v11.53A.11.11,0,0,1,186.69,288.63Z" style="fill:#263238"></path><path d="M187.79,288a.11.11,0,0,1-.11-.11V276.36a.11.11,0,0,1,.22,0v11.52A.11.11,0,0,1,187.79,288Z" style="fill:#263238"></path><path d="M188.89,287.36a.11.11,0,0,1-.12-.11V275.72a.11.11,0,0,1,.12-.11.11.11,0,0,1,.11.11v11.53A.11.11,0,0,1,188.89,287.36Z" style="fill:#263238"></path><path d="M190,286.73a.12.12,0,0,1-.12-.12V275.09A.11.11,0,0,1,190,275a.11.11,0,0,1,.11.11v11.52A.11.11,0,0,1,190,286.73Z" style="fill:#263238"></path><path d="M191.08,286.09A.11.11,0,0,1,191,286V274.46a.11.11,0,0,1,.11-.12.12.12,0,0,1,.12.12V286A.11.11,0,0,1,191.08,286.09Z" style="fill:#263238"></path><path d="M192.18,285.46a.11.11,0,0,1-.11-.12V273.82a.11.11,0,0,1,.22,0v11.52A.11.11,0,0,1,192.18,285.46Z" style="fill:#263238"></path><path d="M193.28,284.82a.11.11,0,0,1-.11-.11V273.19a.11.11,0,1,1,.22,0v11.52A.11.11,0,0,1,193.28,284.82Z" style="fill:#263238"></path><path d="M194.38,284.19a.11.11,0,0,1-.11-.11V272.55a.11.11,0,0,1,.22,0v11.53A.11.11,0,0,1,194.38,284.19Z" style="fill:#263238"></path><path d="M195.48,283.55a.11.11,0,0,1-.11-.11V271.92a.11.11,0,0,1,.22,0v11.52A.11.11,0,0,1,195.48,283.55Z" style="fill:#263238"></path><path d="M196.58,282.92a.11.11,0,0,1-.12-.11V271.28a.11.11,0,0,1,.12-.11.11.11,0,0,1,.11.11v11.53A.11.11,0,0,1,196.58,282.92Z" style="fill:#263238"></path><path d="M197.67,282.29a.11.11,0,0,1-.11-.12V270.65a.11.11,0,0,1,.11-.11.11.11,0,0,1,.12.11v11.52A.12.12,0,0,1,197.67,282.29Z" style="fill:#263238"></path><path d="M198.77,281.65a.11.11,0,0,1-.11-.11V270a.11.11,0,0,1,.11-.11.11.11,0,0,1,.12.11v11.53A.11.11,0,0,1,198.77,281.65Z" style="fill:#263238"></path><path d="M199.87,281a.11.11,0,0,1-.11-.12V269.38a.11.11,0,0,1,.22,0V280.9A.11.11,0,0,1,199.87,281Z" style="fill:#263238"></path><path d="M201,280.38a.11.11,0,0,1-.11-.11V268.75a.11.11,0,1,1,.22,0v11.52A.11.11,0,0,1,201,280.38Z" style="fill:#263238"></path><path d="M202.07,279.75a.11.11,0,0,1-.11-.11V268.11a.11.11,0,0,1,.22,0v11.53A.11.11,0,0,1,202.07,279.75Z" style="fill:#263238"></path><path d="M203.17,279.11a.11.11,0,0,1-.12-.11V267.48a.11.11,0,0,1,.12-.11.11.11,0,0,1,.11.11V279A.11.11,0,0,1,203.17,279.11Z" style="fill:#263238"></path><path d="M204.27,278.48a.11.11,0,0,1-.12-.11V266.84a.11.11,0,0,1,.12-.11.11.11,0,0,1,.11.11v11.53A.11.11,0,0,1,204.27,278.48Z" style="fill:#263238"></path><path d="M205.36,277.85a.11.11,0,0,1-.11-.12V266.21a.11.11,0,0,1,.11-.11.11.11,0,0,1,.12.11v11.52A.12.12,0,0,1,205.36,277.85Z" style="fill:#263238"></path><path d="M206.46,277.21a.11.11,0,0,1-.11-.11V265.57a.11.11,0,0,1,.22,0V277.1A.11.11,0,0,1,206.46,277.21Z" style="fill:#263238"></path><path d="M207.56,276.58a.11.11,0,0,1-.11-.12V264.94a.11.11,0,0,1,.22,0v11.52A.11.11,0,0,1,207.56,276.58Z" style="fill:#263238"></path><path d="M208.66,275.94a.11.11,0,0,1-.11-.11V264.31a.11.11,0,1,1,.22,0v11.52A.11.11,0,0,1,208.66,275.94Z" style="fill:#263238"></path><path d="M209.76,275.31a.11.11,0,0,1-.11-.11V263.67a.11.11,0,0,1,.22,0V275.2A.11.11,0,0,1,209.76,275.31Z" style="fill:#263238"></path><path d="M210.86,274.67a.11.11,0,0,1-.12-.11V263a.11.11,0,0,1,.12-.11.11.11,0,0,1,.11.11v11.52A.11.11,0,0,1,210.86,274.67Z" style="fill:#263238"></path><path d="M212,274a.11.11,0,0,1-.11-.11V262.4a.11.11,0,0,1,.11-.11.11.11,0,0,1,.12.11v11.53A.11.11,0,0,1,212,274Z" style="fill:#263238"></path><path d="M213.05,273.41a.11.11,0,0,1-.11-.12V261.77a.11.11,0,0,1,.11-.11.11.11,0,0,1,.12.11v11.52A.12.12,0,0,1,213.05,273.41Z" style="fill:#263238"></path><path d="M214.15,272.77a.11.11,0,0,1-.11-.11V261.13a.11.11,0,0,1,.22,0v11.53A.11.11,0,0,1,214.15,272.77Z" style="fill:#263238"></path><path d="M215.25,272.14a.11.11,0,0,1-.11-.12V260.5a.11.11,0,0,1,.22,0V272A.11.11,0,0,1,215.25,272.14Z" style="fill:#263238"></path><path d="M216.35,271.5a.11.11,0,0,1-.11-.11V259.87a.11.11,0,1,1,.22,0v11.52A.11.11,0,0,1,216.35,271.5Z" style="fill:#263238"></path><path d="M217.45,270.87a.11.11,0,0,1-.12-.11V259.23a.11.11,0,0,1,.12-.11.11.11,0,0,1,.11.11v11.53A.11.11,0,0,1,217.45,270.87Z" style="fill:#263238"></path><path d="M218.55,270.23a.11.11,0,0,1-.12-.11V258.6a.11.11,0,0,1,.12-.11.11.11,0,0,1,.11.11v11.52A.11.11,0,0,1,218.55,270.23Z" style="fill:#263238"></path><path d="M219.64,269.6a.11.11,0,0,1-.11-.11V258a.11.11,0,0,1,.11-.11.11.11,0,0,1,.12.11v11.53A.11.11,0,0,1,219.64,269.6Z" style="fill:#263238"></path><path d="M220.74,269a.12.12,0,0,1-.11-.12V257.33a.11.11,0,1,1,.22,0v11.52A.12.12,0,0,1,220.74,269Z" style="fill:#263238"></path><path d="M221.84,268.33a.11.11,0,0,1-.11-.11V256.69a.11.11,0,0,1,.22,0v11.53A.11.11,0,0,1,221.84,268.33Z" style="fill:#263238"></path><path d="M222.94,267.7a.11.11,0,0,1-.11-.12V256.06a.11.11,0,0,1,.22,0v11.52A.11.11,0,0,1,222.94,267.7Z" style="fill:#263238"></path><path d="M224,267.06a.11.11,0,0,1-.11-.11V255.43a.11.11,0,1,1,.22,0V267A.11.11,0,0,1,224,267.06Z" style="fill:#263238"></path><path d="M225.14,266.43a.11.11,0,0,1-.12-.11V254.79a.11.11,0,0,1,.12-.11.11.11,0,0,1,.11.11v11.53A.11.11,0,0,1,225.14,266.43Z" style="fill:#263238"></path><path d="M226.23,265.79a.11.11,0,0,1-.11-.11V254.16a.11.11,0,0,1,.11-.11.11.11,0,0,1,.12.11v11.52A.11.11,0,0,1,226.23,265.79Z" style="fill:#263238"></path><path d="M227.33,265.16a.11.11,0,0,1-.11-.11V253.52a.11.11,0,0,1,.11-.11.11.11,0,0,1,.12.11v11.53A.11.11,0,0,1,227.33,265.16Z" style="fill:#263238"></path><path d="M228.43,264.53a.11.11,0,0,1-.11-.12V252.89a.11.11,0,0,1,.22,0v11.52A.11.11,0,0,1,228.43,264.53Z" style="fill:#263238"></path><path d="M229.53,263.89a.11.11,0,0,1-.11-.11V252.25a.11.11,0,0,1,.22,0v11.53A.11.11,0,0,1,229.53,263.89Z" style="fill:#263238"></path><path d="M230.63,263.26a.11.11,0,0,1-.11-.12V251.62a.11.11,0,1,1,.22,0v11.52A.11.11,0,0,1,230.63,263.26Z" style="fill:#263238"></path><path d="M231.73,262.62a.11.11,0,0,1-.12-.11V251a.12.12,0,0,1,.12-.12.11.11,0,0,1,.11.12v11.52A.11.11,0,0,1,231.73,262.62Z" style="fill:#263238"></path><path d="M232.83,262a.11.11,0,0,1-.12-.11V250.35a.11.11,0,0,1,.12-.11.11.11,0,0,1,.11.11v11.53A.11.11,0,0,1,232.83,262Z" style="fill:#263238"></path><path d="M233.92,261.35a.11.11,0,0,1-.11-.11V249.72a.12.12,0,0,1,.11-.12.12.12,0,0,1,.12.12v11.52A.11.11,0,0,1,233.92,261.35Z" style="fill:#263238"></path><path d="M235,260.72a.11.11,0,0,1-.11-.11V249.08a.11.11,0,0,1,.22,0v11.53A.11.11,0,0,1,235,260.72Z" style="fill:#263238"></path><path d="M236.12,260.09A.11.11,0,0,1,236,260V248.45a.11.11,0,0,1,.22,0V260A.11.11,0,0,1,236.12,260.09Z" style="fill:#263238"></path><path d="M237.22,259.45a.11.11,0,0,1-.11-.11V247.81a.11.11,0,0,1,.22,0v11.53A.11.11,0,0,1,237.22,259.45Z" style="fill:#263238"></path><path d="M238.32,258.82a.11.11,0,0,1-.11-.12V247.18a.11.11,0,0,1,.22,0V258.7A.11.11,0,0,1,238.32,258.82Z" style="fill:#263238"></path><path d="M239.42,258.18a.11.11,0,0,1-.12-.11V246.55a.12.12,0,0,1,.12-.12.11.11,0,0,1,.11.12v11.52A.11.11,0,0,1,239.42,258.18Z" style="fill:#263238"></path><path d="M240.51,257.55a.11.11,0,0,1-.11-.11V245.91a.11.11,0,0,1,.11-.11.11.11,0,0,1,.12.11v11.53A.11.11,0,0,1,240.51,257.55Z" style="fill:#263238"></path><path d="M241.61,256.91a.11.11,0,0,1-.11-.11V245.28a.12.12,0,0,1,.11-.12.12.12,0,0,1,.12.12V256.8A.11.11,0,0,1,241.61,256.91Z" style="fill:#263238"></path><path d="M242.71,256.28a.11.11,0,0,1-.11-.11V244.64a.11.11,0,0,1,.22,0v11.53A.11.11,0,0,1,242.71,256.28Z" style="fill:#263238"></path><path d="M243.81,255.65a.11.11,0,0,1-.11-.12V244a.11.11,0,0,1,.22,0v11.52A.11.11,0,0,1,243.81,255.65Z" style="fill:#263238"></path><path d="M244.91,255a.11.11,0,0,1-.11-.11V243.37a.11.11,0,0,1,.22,0V254.9A.11.11,0,0,1,244.91,255Z" style="fill:#263238"></path><path d="M246,254.38a.11.11,0,0,1-.11-.12V242.74a.11.11,0,0,1,.22,0v11.52A.11.11,0,0,1,246,254.38Z" style="fill:#263238"></path><path d="M247.11,253.74a.11.11,0,0,1-.12-.11V242.11a.12.12,0,0,1,.12-.12.11.11,0,0,1,.11.12v11.52A.11.11,0,0,1,247.11,253.74Z" style="fill:#263238"></path><path d="M248.2,253.11a.11.11,0,0,1-.11-.11V241.47a.11.11,0,0,1,.11-.11.11.11,0,0,1,.12.11V253A.11.11,0,0,1,248.2,253.11Z" style="fill:#263238"></path><path d="M249.3,252.47a.11.11,0,0,1-.11-.11V240.84a.11.11,0,0,1,.22,0v11.52A.11.11,0,0,1,249.3,252.47Z" style="fill:#263238"></path><path d="M250.4,251.84a.11.11,0,0,1-.11-.11V240.2a.11.11,0,0,1,.22,0v11.53A.11.11,0,0,1,250.4,251.84Z" style="fill:#263238"></path><path d="M251.5,251.21a.11.11,0,0,1-.11-.12V239.57a.11.11,0,1,1,.22,0v11.52A.11.11,0,0,1,251.5,251.21Z" style="fill:#263238"></path><path d="M252.6,250.57a.11.11,0,0,1-.11-.11V238.93a.11.11,0,0,1,.22,0v11.53A.11.11,0,0,1,252.6,250.57Z" style="fill:#263238"></path><path d="M253.7,249.94a.12.12,0,0,1-.12-.12V238.3a.11.11,0,0,1,.12-.11.11.11,0,0,1,.11.11v11.52A.11.11,0,0,1,253.7,249.94Z" style="fill:#263238"></path><path d="M254.79,249.3a.11.11,0,0,1-.11-.11V237.67a.11.11,0,0,1,.11-.12.12.12,0,0,1,.12.12v11.52A.11.11,0,0,1,254.79,249.3Z" style="fill:#263238"></path><path d="M255.89,248.67a.11.11,0,0,1-.11-.11V237a.11.11,0,0,1,.11-.11.11.11,0,0,1,.12.11v11.53A.11.11,0,0,1,255.89,248.67Z" style="fill:#263238"></path><path d="M257,248a.11.11,0,0,1-.11-.11V236.4a.11.11,0,1,1,.22,0v11.52A.11.11,0,0,1,257,248Z" style="fill:#263238"></path><path d="M258.09,247.4a.11.11,0,0,1-.11-.11V235.76a.11.11,0,1,1,.22,0v11.53A.11.11,0,0,1,258.09,247.4Z" style="fill:#263238"></path><path d="M259.19,246.77a.12.12,0,0,1-.11-.12V235.13a.11.11,0,1,1,.22,0v11.52A.12.12,0,0,1,259.19,246.77Z" style="fill:#263238"></path><path d="M260.29,246.13a.11.11,0,0,1-.12-.11V234.49a.11.11,0,0,1,.12-.11.11.11,0,0,1,.11.11V246A.11.11,0,0,1,260.29,246.13Z" style="fill:#263238"></path><path d="M261.39,245.5a.12.12,0,0,1-.12-.12V233.86a.11.11,0,0,1,.12-.11.11.11,0,0,1,.11.11v11.52A.11.11,0,0,1,261.39,245.5Z" style="fill:#263238"></path><path d="M262.48,244.86a.11.11,0,0,1-.11-.11V233.23a.11.11,0,0,1,.11-.12.12.12,0,0,1,.12.12v11.52A.11.11,0,0,1,262.48,244.86Z" style="fill:#263238"></path><path d="M263.58,244.23a.11.11,0,0,1-.11-.11V232.59a.11.11,0,0,1,.11-.11.11.11,0,0,1,.12.11v11.53A.11.11,0,0,1,263.58,244.23Z" style="fill:#263238"></path><path d="M264.68,243.59a.11.11,0,0,1-.11-.11V232a.11.11,0,1,1,.22,0v11.52A.11.11,0,0,1,264.68,243.59Z" style="fill:#263238"></path><path d="M265.78,243a.11.11,0,0,1-.11-.11V231.32a.11.11,0,1,1,.22,0v11.53A.11.11,0,0,1,265.78,243Z" style="fill:#263238"></path><path d="M266.88,242.33a.12.12,0,0,1-.11-.12V230.69a.11.11,0,1,1,.22,0v11.52A.12.12,0,0,1,266.88,242.33Z" style="fill:#263238"></path><path d="M268,241.69a.11.11,0,0,1-.12-.11V230.05a.11.11,0,0,1,.12-.11.11.11,0,0,1,.11.11v11.53A.11.11,0,0,1,268,241.69Z" style="fill:#263238"></path><path d="M269.08,241.06a.12.12,0,0,1-.12-.12V229.42a.11.11,0,0,1,.12-.11.11.11,0,0,1,.11.11v11.52A.11.11,0,0,1,269.08,241.06Z" style="fill:#263238"></path><path d="M270.17,240.42a.11.11,0,0,1-.11-.11V228.79a.11.11,0,0,1,.11-.12.12.12,0,0,1,.12.12v11.52A.11.11,0,0,1,270.17,240.42Z" style="fill:#263238"></path><path d="M271.27,239.79a.11.11,0,0,1-.11-.11V228.15a.11.11,0,1,1,.22,0v11.53A.11.11,0,0,1,271.27,239.79Z" style="fill:#263238"></path><path d="M272.37,239.15a.11.11,0,0,1-.11-.11V227.52a.11.11,0,1,1,.22,0V239A.11.11,0,0,1,272.37,239.15Z" style="fill:#263238"></path><path d="M273.47,238.52a.11.11,0,0,1-.11-.11V226.88a.11.11,0,0,1,.22,0v11.53A.11.11,0,0,1,273.47,238.52Z" style="fill:#263238"></path><path d="M274.57,237.89a.11.11,0,0,1-.11-.12V226.25a.1.1,0,0,1,.11-.11.11.11,0,0,1,.11.11v11.52A.11.11,0,0,1,274.57,237.89Z" style="fill:#263238"></path><path d="M275.67,237.25a.11.11,0,0,1-.12-.11V225.61a.11.11,0,0,1,.12-.11.11.11,0,0,1,.11.11v11.53A.11.11,0,0,1,275.67,237.25Z" style="fill:#263238"></path><path d="M276.76,236.62a.11.11,0,0,1-.11-.12V225a.11.11,0,0,1,.11-.11.11.11,0,0,1,.12.11V236.5A.12.12,0,0,1,276.76,236.62Z" style="fill:#263238"></path><path d="M277.86,236a.11.11,0,0,1-.11-.11V224.35a.11.11,0,0,1,.11-.12.12.12,0,0,1,.12.12v11.52A.11.11,0,0,1,277.86,236Z" style="fill:#263238"></path><path d="M279,235.35a.11.11,0,0,1-.11-.11V223.71a.11.11,0,1,1,.22,0v11.53A.11.11,0,0,1,279,235.35Z" style="fill:#263238"></path><path d="M280.06,234.71a.11.11,0,0,1-.11-.11V223.08a.11.11,0,1,1,.22,0V234.6A.11.11,0,0,1,280.06,234.71Z" style="fill:#263238"></path><path d="M281.16,234.08a.11.11,0,0,1-.11-.11V222.44a.11.11,0,0,1,.22,0V234A.11.11,0,0,1,281.16,234.08Z" style="fill:#263238"></path><path d="M282.26,233.45a.12.12,0,0,1-.12-.12V221.81a.11.11,0,0,1,.12-.11.11.11,0,0,1,.11.11v11.52A.11.11,0,0,1,282.26,233.45Z" style="fill:#263238"></path><path d="M283.36,232.81a.11.11,0,0,1-.12-.11V221.17a.11.11,0,0,1,.12-.11.11.11,0,0,1,.11.11V232.7A.11.11,0,0,1,283.36,232.81Z" style="fill:#263238"></path><path d="M284.45,232.18a.11.11,0,0,1-.11-.12V220.54a.11.11,0,0,1,.11-.11.11.11,0,0,1,.12.11v11.52A.12.12,0,0,1,284.45,232.18Z" style="fill:#263238"></path><path d="M285.55,231.54a.11.11,0,0,1-.11-.11V219.91a.11.11,0,1,1,.22,0v11.52A.11.11,0,0,1,285.55,231.54Z" style="fill:#263238"></path><path d="M286.65,230.91a.11.11,0,0,1-.11-.11V219.27a.11.11,0,0,1,.22,0V230.8A.11.11,0,0,1,286.65,230.91Z" style="fill:#263238"></path><path d="M287.75,230.27a.11.11,0,0,1-.11-.11V218.64a.11.11,0,1,1,.22,0v11.52A.11.11,0,0,1,287.75,230.27Z" style="fill:#263238"></path><path d="M288.85,229.64a.11.11,0,0,1-.11-.11V218a.11.11,0,1,1,.22,0v11.53A.11.11,0,0,1,288.85,229.64Z" style="fill:#263238"></path><path d="M290,229a.12.12,0,0,1-.12-.12V217.37a.11.11,0,0,1,.12-.11.11.11,0,0,1,.11.11v11.52A.11.11,0,0,1,290,229Z" style="fill:#263238"></path><path d="M291,228.37a.11.11,0,0,1-.11-.11V216.73a.11.11,0,0,1,.11-.11.11.11,0,0,1,.12.11v11.53A.11.11,0,0,1,291,228.37Z" style="fill:#263238"></path><path d="M292.14,227.74a.11.11,0,0,1-.11-.12V216.1a.11.11,0,0,1,.11-.11.11.11,0,0,1,.12.11v11.52A.12.12,0,0,1,292.14,227.74Z" style="fill:#263238"></path><path d="M293.24,227.1a.11.11,0,0,1-.11-.11V215.47a.11.11,0,1,1,.22,0V227A.11.11,0,0,1,293.24,227.1Z" style="fill:#263238"></path><path d="M294.34,226.47a.11.11,0,0,1-.11-.11V214.83a.11.11,0,0,1,.22,0v11.53A.11.11,0,0,1,294.34,226.47Z" style="fill:#263238"></path><path d="M295.44,225.83a.11.11,0,0,1-.11-.11V214.2a.11.11,0,1,1,.22,0v11.52A.11.11,0,0,1,295.44,225.83Z" style="fill:#263238"></path><path d="M296.54,225.2a.11.11,0,0,1-.12-.11V213.56a.11.11,0,0,1,.12-.11.11.11,0,0,1,.11.11v11.53A.11.11,0,0,1,296.54,225.2Z" style="fill:#263238"></path><path d="M297.64,224.56a.11.11,0,0,1-.12-.11V212.93a.11.11,0,0,1,.12-.11.11.11,0,0,1,.11.11v11.52A.11.11,0,0,1,297.64,224.56Z" style="fill:#263238"></path><path d="M298.73,223.93a.11.11,0,0,1-.11-.11V212.29a.11.11,0,0,1,.11-.11.11.11,0,0,1,.12.11v11.53A.11.11,0,0,1,298.73,223.93Z" style="fill:#263238"></path><path d="M299.83,223.3a.11.11,0,0,1-.11-.12V211.66a.11.11,0,1,1,.22,0v11.52A.11.11,0,0,1,299.83,223.3Z" style="fill:#263238"></path><path d="M300.93,222.66a.11.11,0,0,1-.11-.11V211a.11.11,0,1,1,.22,0v11.52A.11.11,0,0,1,300.93,222.66Z" style="fill:#263238"></path><path d="M302,222a.11.11,0,0,1-.11-.11V210.39a.11.11,0,1,1,.22,0v11.53A.11.11,0,0,1,302,222Z" style="fill:#263238"></path><path d="M303.13,221.39a.11.11,0,0,1-.11-.11V209.76a.11.11,0,1,1,.22,0v11.52A.11.11,0,0,1,303.13,221.39Z" style="fill:#263238"></path><polygon points="179.43 279.29 179.43 281.18 303.13 209.76 303.13 207.87 179.43 279.29" style="fill:#fafafa"></polygon><polygon points="185.05 303.87 183.46 302.95 181.86 302.03 181.03 302.51 181.03 293.22 179.43 292.3 179.42 292.31 179.42 279.3 177.83 278.38 176.22 279.31 176.22 296.01 177.81 296.94 177.82 296.93 177.82 306.22 179.42 307.14 185.05 303.87" style="fill:#263238"></polygon><polygon points="181.03 304.36 181.03 293.22 179.42 294.15 179.42 279.3 177.81 280.23 177.81 296.94 179.42 296.01 179.42 307.14 185.05 303.87 183.46 302.95 181.03 304.36" style="fill:#37474f"></polygon><polygon points="177.81 280.23 179.42 279.3 177.83 278.38 176.22 279.31 177.81 280.23" style="fill:#455a64"></polygon></g></g><g id="freepik--character-2--inject-5"><g id="freepik--character--inject-5"><g id="freepik--bottom--inject-5"><path d="M428.47,285.85c1.54,7.54,2.2,12-3.6,19.11s-32.23,25.4-32.23,25.4,1.67,1.8,2.95,6.16c1.56,5.31,1.48,24.93,2.12,34.11-.7,3.43-7.23,5.17-9.7.81,0,0-8.38-29.76-11-37.48s-3.14-9.28,1.66-15.46,23.78-26.45,23.19-32.14Z" style="fill:#b16668"></path><path d="M400.57,380a5,5,0,0,1-.29,2.17c-.4.82-3.37,1.94-6.08,1.85s-7.31-1.25-9.62-1-4.83,1.2-8.57.75-7.05-1.43-7.35-3.29,16.37-2,23.36-1.6S400.57,380,400.57,380Z" style="fill:#ebebeb"></path><path d="M397.6,368.82c1.34.24.92,1.22,1.59,3.55s1.68,4.35,1.38,7.58c-1,1.75-4.46,2.59-8.54,2.13a36.15,36.15,0,0,0-11.9.6c-3.17.79-10.76-.87-11.47-2.27a3.3,3.3,0,0,1,1-4.08c1.23-.89,6.26-1.14,10.24-3.12,3.52-1.75,5.74-3.2,6.23-4.54s1.5-1.21,2-.12a3,3,0,0,1,0,1.81,9.71,9.71,0,0,1,2.19.69c.6.37,1.12,1.34,1.75,1.5s.86-1.35,1.94-1.94a12.89,12.89,0,0,1,3.7-.76Z" style="fill:#455a64"></path><path d="M375.5,374.76h0a22.62,22.62,0,0,0,4.38-1.54c3.52-1.75,5.74-3.2,6.23-4.54s1.5-1.21,2-.12a2.66,2.66,0,0,1,0,1.63c-.77,1.35-1.77,2.08-3.8,3.05s-7.16,3.1-8.64,3.13S374.9,375.53,375.5,374.76Z" style="fill:#407BFF"></path><path d="M368.53,381.27c.68,1.26,2.77,2.33,6.59,3a23.33,23.33,0,0,0,9.09-.63c1.33-.32,3.36.25,7.2.95s7.73-.51,8.46-1.07a1.22,1.22,0,0,0,.41-1.38c-.4.82-3.37,1.94-6.08,1.85s-7.31-1.25-9.62-1-4.83,1.2-8.57.75a15.37,15.37,0,0,1-6.21-1.76,4.18,4.18,0,0,1-.34-2.75c.07-.55-.62-1.29-.8-1.66C368.23,377.61,367.85,380,368.53,381.27Z" style="fill:#263238"></path><path d="M385.15,370a1.15,1.15,0,0,1-.3.26,6.78,6.78,0,0,0-.49,3.46,3.13,3.13,0,0,1-1.23.67,5,5,0,0,1,.39-3.16A2.24,2.24,0,0,1,385.15,370Z" style="fill:#37474f"></path><path d="M381.63,372.3a7.22,7.22,0,0,0-.34,2.51s-.76.61-1.27.54a5.72,5.72,0,0,1,.59-2.79c.48-.66,1.39-.85,1.59-.57Z" style="fill:#37474f"></path><path d="M379,373.63a7.33,7.33,0,0,0-.52,2.48s-.8.55-1.3.44a5.82,5.82,0,0,1,.78-2.74c.53-.62,1.46-.74,1.63-.44Z" style="fill:#37474f"></path><path d="M392.36,382.11a8.28,8.28,0,0,0,1.61-3.3,5.48,5.48,0,0,1,6.06-3.74,12.29,12.29,0,0,1,.54,4.88C399.63,381.65,396.3,382.49,392.36,382.11Z" style="fill:#407BFF"></path><path d="M438.63,273.84c2.64,8.39,3.56,13.1,1.49,22.34-1.41,6.29-5.82,24.18-5.82,24.18a25.83,25.83,0,0,1,6.31,9A92.9,92.9,0,0,1,445.83,346a120.19,120.19,0,0,0,3.36,12.16,13.49,13.49,0,0,1-6.05,2.33c-3.13.21-3.06-1.66-3.7-3.47A21.81,21.81,0,0,0,436,350.2c-5.78-8.37-12.08-17.14-15.68-22.21-3.18-4.48-3.72-6.06-2.82-16.74.93-11.09,2-26.93,2-26.93Z" style="fill:#b16668"></path><path d="M451.35,365.26c.06,1-.56,1.82-3,2.29a11.8,11.8,0,0,1-7.54-1.22c-2-1.15-3.16-1.45-4.7-1.34a14.27,14.27,0,0,1-6.66-1.65,5.93,5.93,0,0,1-2.44-4.15c0-1.3-.07-2.66,1-2.76S451.35,365.26,451.35,365.26Z" style="fill:#263238"></path><path d="M451.39,364c.08,1.09.1,1.32-.43,1.73a10.34,10.34,0,0,1-6.35,1.15c-3.18-.39-4.61-2-6.47-2.24s-4.83.47-8-1.31-2.79-4.06-2.82-4.7Z" style="fill:#ebebeb"></path><path d="M448.36,353.18l-.11-.05a6.28,6.28,0,0,0-3.44,0,5.08,5.08,0,0,0-3.25,1.62,9.42,9.42,0,0,0-.79,1.51c-.06.12-.15.26-.29.27a.43.43,0,0,1-.22-.06,4.82,4.82,0,0,1-.7-.48,2.54,2.54,0,0,0-.5-.36c-.34-.17-.62,0-1,.08a16.91,16.91,0,0,1-4.39.27c-4.38,0-4.47-.15-5.41.21s-1.17,1.63-.84,2.81.86,2.87,4.2,4.06,5.75-.21,10.19,1.91a10.24,10.24,0,0,0,4.15.68c1.93-.22,4.23-.67,5.39-1.69.64-2.58-.76-5.34-1.67-7.48-.25-.6-.48-1.2-.68-1.82a4,4,0,0,0-.54-1.41Z" style="fill:#455a64"></path><path d="M443,363.75c.72-.88.31-2.08,1.42-3.64s4.24-2.41,6.17-1.69a9.19,9.19,0,0,1,.85,5.56c-1.16,1-3.46,1.47-5.39,1.69a10.24,10.24,0,0,1-4.15-.68,12,12,0,0,0-1.23-.51h0S442.29,364.53,443,363.75Z" style="fill:#407BFF"></path><path d="M431.5,356c-.72,0-1.74.45-1.57.63a5.33,5.33,0,0,0,3.34.68c3.4-.25,5.35-1.22,5.62-1.68,0,0-.37-.83-.71-1.56-.19-.43-.86.08-1.83.8A9,9,0,0,1,431.5,356Z" style="fill:#407BFF"></path><path d="M436,355.07a2.54,2.54,0,0,0-1.2,2.09,1.46,1.46,0,0,1-.83.15,2.08,2.08,0,0,1,.61-1.7,2.19,2.19,0,0,1,1.89-.84A1.72,1.72,0,0,1,436,355.07Z" style="fill:#37474f"></path><path d="M434.05,355.73a2,2,0,0,0-1.41,1.59,1.07,1.07,0,0,1-.83,0,2.11,2.11,0,0,1,1.22-1.55,1.52,1.52,0,0,1,1.51-.13Z" style="fill:#37474f"></path><path d="M432.49,356A2.58,2.58,0,0,0,430.9,357a.94.94,0,0,1-.68-.26,2.66,2.66,0,0,1,1.76-1c.86-.16,1.15.07,1.15.07Z" style="fill:#37474f"></path><path d="M439.44,273c2.65,8.48,3.32,11.67,2.26,19.4s-4.25,19.7-4.25,19.7-3.08,2.57-9.52,3.78c-5.92,1.13-9.69.76-11.05-.36l.23-2.72-13.83,11s-15-5-18-14.6c4.55-6.59,9.68-12.16,13.68-18.1,1.35-2,2.42-3.4,3-8.4Z" style="fill:#37474f"></path><path d="M432.71,295.17a19.45,19.45,0,0,1-5.78,11.64c-4.17,4.27-6.75,4.8-6.57,6.85s3.11,2.9,5.64,2.56c-4.81.7-7.91.31-9.12-.69l.23-2.72C427.91,304.32,431.56,300.24,432.71,295.17Z" style="fill:#263238"></path><path d="M434.3,320.36s-4.13,2.93-8.69,1.66c2.28-.09,8.2-1.94,9.47-4.84Z" style="fill:#9a4a4d"></path><path d="M392.64,330.36c-1.94-2.44-6.39-3.83-8.51-3.61,5.33-.8,8.36.86,10.09,2.51Z" style="fill:#9a4a4d"></path></g><g id="freepik--top--inject-5"><path d="M367.81,254.69a5.58,5.58,0,0,1,.73-.46,5.5,5.5,0,0,1,1.08-.14c.86-.15,1.49-.88,2.23-1.36a5.53,5.53,0,0,1,2.64-.82,14.39,14.39,0,0,1,2.78.13,5.32,5.32,0,0,0,1.32,0,1.69,1.69,0,0,0,1.14-.6,1.5,1.5,0,0,0,.06-1.57,2.32,2.32,0,0,0-1.23-1,5.84,5.84,0,0,0-1.61-.33,18.81,18.81,0,0,0-4.8.17,12.37,12.37,0,0,0-3.71,1.23,6.57,6.57,0,0,0-2.54,2.76,2.8,2.8,0,0,0-.46,1.38C365.46,255.08,367.21,255,367.81,254.69Z" style="fill:#9a4a4d"></path><path d="M393.23,247.45a27.61,27.61,0,0,1-9.77-.85,39.8,39.8,0,0,0-9.28-.79c-2,.19-6,3.34-6.82,4.19s-2.14,3.34-2.93,4.38c.23.56,1.57.87,2.68-.14,1-.86,1.73-2.11,3.64-3a9.35,9.35,0,0,1,5.61-.46c1.78.31,2.18.72.66,2a22.27,22.27,0,0,1-3.17,2.2c-1.3.82-1.68,1.34-1.92,2-.46,1.13,0,1.77,1.62,1.21s2.87-.69,4.77-1.3,2.87-1.27,4.46-1.35c2-.1,10.2.36,10.2.36Z" style="fill:#b16668"></path><path d="M417.09,228.72c3.33-.37,6.72-.46,8.81,2.77,1.7,2.64,5.38,14.28,5.38,14.28Z" style="fill:#37474f"></path><polygon points="397.83 228.98 400.31 240.05 413.57 236.6 410.89 225.01 397.83 228.98" style="fill:#b16668"></polygon><path d="M387.86,214.47s-2.87,5-2.54,5.39,2.82.57,2.82.57Z" style="fill:#9a4a4d"></path><path d="M396.08,198.57c-5.62,1.32-7.71,4.2-8.32,14.12a45.45,45.45,0,0,0,.51,10.22c.8,4.26,1.88,5.45,3.09,6.24,1,.66,6.16.88,8.48.18,2.9-.86,9.45-3.34,12.44-8.13,3.52-5.63,3.57-12.4.35-16.18C405.11,196.16,398.37,198,396.08,198.57Z" style="fill:#b16668"></path><path d="M391.36,229.15c.75.49,3.71.94,6.63.51l-.44-2a15.91,15.91,0,0,1-3.4,1.37A5.47,5.47,0,0,1,391.36,229.15Z" style="fill:#9a4a4d"></path><path d="M392.45,210l1.14.07s.69,1.44.79,1.58a7.82,7.82,0,0,0,1.38,1.2c.43.35.32.36.2,1a7.28,7.28,0,0,0-.11,1.62,2.15,2.15,0,0,0,.3,1.22.79.79,0,0,0,1.43-.06,10.22,10.22,0,0,1,1.15-2.07,3.92,3.92,0,0,1,2.39-1.41c3.54-.46,4.08,4.18,2.71,6.13-2.26,3.2-4.28,1.11-4.28,1.11s-.37,3.88,3.91,7.43a6,6,0,0,0,3.25.94c1,.07,3.82-.13,4.74-1.22,2-5.76,7.81-9.86,7.6-16.36-.14-4.09-2.29-5.79-3.73-5.95.9-5.45-4.49-7.91-8.05-9a15.53,15.53,0,0,0-5.77-.37c-.95.07-1.89.18-2.84.19a16,16,0,0,1-8.51-2.27,6.92,6.92,0,0,0,0,4.45,4.24,4.24,0,0,1-2.34-1.21c-.16-.16-.35-.35-.57-.32a.62.62,0,0,0-.42.36,4,4,0,0,0,0,3.36,11.78,11.78,0,0,0,1.87,2.9,2.81,2.81,0,0,0-1.54,1.06,2.89,2.89,0,0,0-.39.9c-.07.32,0,.7-.05,1a4.24,4.24,0,0,0,2.73,3.11A9.63,9.63,0,0,0,392.45,210Z" style="fill:#263238"></path><path d="M392.27,240.05c2.14-1.56,6.92-5,6.92-5a15.31,15.31,0,0,0,9.32-1.15c4.13-1.91,3.41-4.45,3.41-4.45a46.22,46.22,0,0,1,5.17-.74c3.73.87,9.77,7,13.43,14.92,6.34,13.81,9.19,25.68,11.42,37.05-2.31,10.53-31.69,16.82-41.12,6.4a19.77,19.77,0,0,0,.51-10.65c-1.46-6.94-5.68-13.4-8.1-19.3C389.78,248.73,392.27,240.05,392.27,240.05Z" style="fill:#407BFF"></path><path d="M392.27,240.05c2.14-1.56,6.92-5,6.92-5a15.31,15.31,0,0,0,9.32-1.15c4.13-1.91,3.41-4.45,3.41-4.45a46.22,46.22,0,0,1,5.17-.74c3.73.87,9.77,7,13.43,14.92,6.34,13.81,9.19,25.68,11.42,37.05-2.31,10.53-31.69,16.82-41.12,6.4a19.77,19.77,0,0,0,.51-10.65c-1.46-6.94-5.68-13.4-8.1-19.3C389.78,248.73,392.27,240.05,392.27,240.05Z" style="opacity:0.25"></path><path d="M344.36,294.89l-1-1.52,4-11.43,1,1.52a4.89,4.89,0,0,1,.41,1,4,4,0,0,0,2.78.25l10.18-2.08a.17.17,0,0,1,.17.06c.14.22,1,1.47,1,1.52.36.54-.94,4-1.66,4.18l-10,1.67a9.31,9.31,0,0,0-5.31,3.13A20.79,20.79,0,0,1,344.36,294.89Z" style="fill:#263238"></path><path d="M330.42,301.43c-4,.68-7.07-.29-8.43-2.34l-1-1.55a5.83,5.83,0,0,1-.31-5.29c1.89-5.35,9-10.83,15.78-12.22l2.31-.47c4.07-.83,7.09.06,8.46,2.1l1,1.55a6.11,6.11,0,0,1,.27,5.53l0,.08c-2,5.63-9.06,11.11-15.79,12.23Z" style="fill:#407BFF"></path><path d="M330.42,301.43c-4,.68-7.07-.29-8.43-2.34l-1-1.55a5.83,5.83,0,0,1-.31-5.29c1.89-5.35,9-10.83,15.78-12.22l2.31-.47c4.07-.83,7.09.06,8.46,2.1l1,1.55a6.11,6.11,0,0,1,.27,5.53l0,.08c-2,5.63-9.06,11.11-15.79,12.23Z" style="opacity:0.4"></path><path d="M348.49,288.82l0-.08c2-5.62-1.93-9.06-8.75-7.66l-2.31.47c-6.82,1.39-13.88,6.86-15.78,12.22s2,8.79,8.75,7.66l2.28-.38C339.43,299.93,346.5,294.45,348.49,288.82Z" style="fill:#407BFF"></path><path d="M348.49,288.82l0-.08c2-5.62-1.93-9.06-8.75-7.66l-2.31.47c-6.82,1.39-13.88,6.86-15.78,12.22s2,8.79,8.75,7.66l2.28-.38C339.43,299.93,346.5,294.45,348.49,288.82Z" style="opacity:0.15"></path><path d="M344.36,294.89a20.79,20.79,0,0,0,1.57-1.7,9.31,9.31,0,0,1,5.31-3.13l10-1.67c.79-.15,2.29-4.39,1.5-4.24l-10.19,2.08c-1.93.4-3.41-.16-3.69-1.45a4.46,4.46,0,0,0-.5-1.32Z" style="fill:#455a64"></path><path d="M392,240.59c-4.46,2.8-5.92,4-6.22,10.87s-1.17,22.81-1.17,22.81-11.32,4.63-16.68,5.91c-3.62.86-4.26-.39-8-.18-3.12.18-3.52.86-5.71,1.94-2.78,1.37-2.46,2.73-2.46,2.73l4.52-.92a.37.37,0,0,1,.06.09,3.92,3.92,0,0,1-2.76,5.83l-1.55.26s-.82.13-1.55.29c0,0,.67.87.74.95.37.41.75.8,1.13,1.21.75.83,1.43,1.88,2.73,1.6a5.29,5.29,0,0,1,.54-.13c.67-.1,1.32.34,2,.31.82,0,1.46-.72,2.27-.72a5.33,5.33,0,0,0,2.6-.78c1-.52,1.76-2.25,5.93-3.31,4.68-1.19,20.86-3,23.79-3.91,4.8-1.55,4.44-3.48,5.17-8.41s2.22-21.91,2.22-21.91S400.1,244.61,392,240.59Z" style="fill:#b16668"></path><path d="M392.27,240.05c-1.77,1.15-3.93,2.48-5,4.11s-1.28,2.09-1.66,6.92-1.05,17.65-1.05,17.65,1.22,2.37,5.76,3.48c5.36,1.31,8.25.15,8.25.15s1.39-12.57,1.71-17.07C400.62,250.36,399.7,242.85,392.27,240.05Z" style="fill:#37474f"></path></g></g></g><g id="freepik--Ball--inject-5"><g id="freepik--tennis-ball--inject-5"><circle cx="206.49" cy="200.28" r="4.45" style="fill:#fff"></circle><path d="M210.34,213.14c2.12,1.22,2.12,3.22,0,4.44a8.5,8.5,0,0,1-7.7,0c-2.13-1.22-2.13-3.21,0-4.44A8.5,8.5,0,0,1,210.34,213.14Z" style="opacity:0.15"></path></g></g></svg>