<svg 
fill="currentColor"
width="226px" height="226px" viewBox="-1.7 -1.7 20.40 20.40" version="1.1" xmlns="http://www.w3.org/2000/svg" xmlns:xlink="http://www.w3.org/1999/xlink" class="si-glyph si-glyph-bubble-message-text" fill="#ffffff" stroke="#ffffff" transform="rotate(0)">
  <g id="SVGRepo_bgCarrier" stroke-width="0"></g>
  <g id="SVGRepo_tracerCarrier" stroke-linecap="round" stroke-linejoin="round" stroke="#CCCCCC" stroke-width="0.10200000000000001"></g>
  <g id="SVGRepo_iconCarrier">
    <title>95</title>
    <defs></defs>
    <g stroke-width="0.425"  fill-rule="evenodd">
      <path d="M8.01,0.078 C3.606,0.078 0.031,2.759 0.031,6.065 C0.031,9.083 3.011,11.573 6.883,11.985 L4.762,15.423 L10.959,11.624 C13.904,10.744 15.99,8.589 15.99,6.065 C15.99,2.759 12.416,0.078 8.01,0.078 L8.01,0.078 Z M10,9 L4,9 L4,8 L10,8 L10,9 L10,9 Z M12,7.046 L4,7.046 L4,6 L12,6 L12,7.046 L12,7.046 Z M12,4.991 L4,4.991 L4,3.991 L12,3.991 L12,4.991 L12,4.991 Z" fill="#7270a8" class="si-glyph-fill"></path>
    </g>
  </g>
</svg>
